<svg width="268" height="167" viewBox="0 0 268 167" fill="none" xmlns="http://www.w3.org/2000/svg">
<rect width="268" height="167" fill="#202020"/>
<rect x="127.543" y="28.5756" width="12.9131" height="12.9993" rx="1.48444" fill="white" fill-opacity="0.05"/>
<path d="M137.481 35.637H134.978V34.7063C134.978 34.3638 134.899 34.1178 134.741 33.9685C134.592 33.8104 134.416 33.7314 134.214 33.7314C134.003 33.7314 133.779 33.8236 133.542 34.0081C133.305 34.1925 133.13 34.4296 133.015 34.7195V38.6059H130.512V31.6762H132.765V32.7038C133.011 32.3261 133.358 32.0407 133.806 31.8474C134.254 31.6454 134.776 31.5444 135.374 31.5444C135.848 31.5444 136.226 31.6279 136.507 31.7947C136.788 31.9616 136.998 32.1768 137.139 32.4403C137.279 32.7038 137.372 32.9804 137.416 33.2703C137.46 33.5513 137.481 33.8104 137.481 34.0476V35.637Z" fill="white"/>
<path d="M134.982 38.6059V36.1818L137.487 36.1818L137.024 37.6781L134.982 38.6059Z" fill="#EE5B84"/>
<g clip-path="url(#clip0)">
<path d="M122.304 73.5063H119.801V69.6067C119.801 69.2641 119.722 69.0182 119.564 68.8689C119.414 68.7108 119.239 68.6317 119.037 68.6317C118.826 68.6317 118.602 68.724 118.365 68.9084C118.128 69.0928 117.952 69.33 117.838 69.6198V73.5063H115.335V66.5765H117.587V67.6041C117.833 67.2265 118.18 66.941 118.628 66.7478C119.076 66.5458 119.599 66.4448 120.196 66.4448C120.67 66.4448 121.048 66.5282 121.329 66.6951C121.61 66.862 121.821 67.0772 121.961 67.3406C122.102 67.6041 122.194 67.8808 122.238 68.1706C122.282 68.4517 122.304 68.7108 122.304 68.9479V73.5063ZM126.929 73.638C126.104 73.638 125.41 73.4712 124.848 73.1374C124.286 72.7949 123.86 72.3513 123.57 71.8068C123.28 71.2622 123.135 70.6738 123.135 70.0414C123.135 69.4003 123.28 68.8074 123.57 68.2629C123.86 67.7183 124.286 67.2792 124.848 66.9454C125.41 66.6117 126.104 66.4448 126.929 66.4448C127.755 66.4448 128.449 66.6117 129.011 66.9454C129.573 67.2792 129.999 67.7183 130.289 68.2629C130.579 68.8074 130.724 69.4003 130.724 70.0414C130.724 70.6738 130.579 71.2622 130.289 71.8068C129.999 72.3513 129.573 72.7949 129.011 73.1374C128.449 73.4712 127.755 73.638 126.929 73.638ZM125.704 70.0414C125.704 70.4981 125.818 70.8626 126.047 71.1349C126.284 71.3984 126.578 71.5301 126.929 71.5301C127.289 71.5301 127.584 71.3984 127.812 71.1349C128.04 70.8626 128.154 70.4981 128.154 70.0414C128.154 69.5759 128.04 69.2114 127.812 68.9479C127.584 68.6844 127.289 68.5527 126.929 68.5527C126.578 68.5527 126.284 68.6844 126.047 68.9479C125.818 69.2114 125.704 69.5759 125.704 70.0414ZM136.368 73.1242C136.017 73.2735 135.639 73.4009 135.235 73.5063C134.84 73.6029 134.449 73.6512 134.063 73.6512C133.685 73.6512 133.338 73.5897 133.022 73.4668C132.706 73.335 132.451 73.1242 132.258 72.8344C132.073 72.5358 131.981 72.1361 131.981 71.6355V68.4605H131.125V66.5765H131.981V64.4027H134.484V66.5765H135.841V68.4605H134.484V70.7528C134.484 70.9812 134.532 71.1437 134.629 71.2403C134.726 71.3281 134.857 71.372 135.024 71.372C135.147 71.372 135.288 71.3501 135.446 71.3062C135.604 71.2622 135.762 71.2095 135.92 71.1481L136.368 73.1242ZM141.887 73.1242C141.536 73.2735 141.158 73.4009 140.754 73.5063C140.359 73.6029 139.968 73.6512 139.582 73.6512C139.204 73.6512 138.857 73.5897 138.541 73.4668C138.225 73.335 137.97 73.1242 137.777 72.8344C137.593 72.5358 137.5 72.1361 137.5 71.6355V68.4605H136.644V66.5765H137.5V64.4027H140.003V66.5765H141.36V68.4605H140.003V70.7528C140.003 70.9812 140.052 71.1437 140.148 71.2403C140.245 71.3281 140.377 71.372 140.544 71.372C140.667 71.372 140.807 71.3501 140.965 71.3062C141.123 71.2622 141.281 71.2095 141.439 71.1481L141.887 73.1242ZM142.215 71.4115C142.215 70.9461 142.342 70.5376 142.597 70.1863C142.852 69.8262 143.203 69.5452 143.651 69.3432C144.108 69.1412 144.626 69.0401 145.205 69.0401C145.768 69.0401 146.233 69.128 146.602 69.3036V69.0928C146.602 68.7679 146.505 68.5263 146.312 68.3683C146.128 68.2102 145.825 68.1311 145.403 68.1311C145.017 68.1311 144.652 68.197 144.31 68.3287C143.976 68.4517 143.624 68.6361 143.256 68.8821L142.531 67.3275C143.444 66.739 144.485 66.4448 145.653 66.4448C146.751 66.4448 147.599 66.6951 148.196 67.1957C148.802 67.6876 149.105 68.421 149.105 69.3959V70.7397C149.105 70.9768 149.14 71.1437 149.21 71.2403C149.281 71.3281 149.404 71.3808 149.579 71.3984V73.5063C149.377 73.5502 149.184 73.5809 149 73.5985C148.824 73.6249 148.666 73.638 148.525 73.638C148.077 73.638 147.735 73.559 147.498 73.4009C147.269 73.234 147.12 72.9925 147.05 72.6763L146.997 72.426C146.365 73.234 145.579 73.638 144.639 73.638C144.182 73.638 143.769 73.5414 143.401 73.3482C143.032 73.155 142.742 72.8915 142.531 72.5577C142.32 72.2152 142.215 71.8331 142.215 71.4115ZM146.273 71.5828C146.492 71.4335 146.602 71.271 146.602 71.0954V70.5816C146.461 70.5289 146.299 70.4849 146.114 70.4498C145.939 70.4147 145.781 70.3971 145.64 70.3971C145.342 70.3971 145.087 70.4718 144.876 70.6211C144.674 70.7704 144.573 70.9592 144.573 71.1876C144.573 71.3808 144.648 71.5389 144.797 71.6619C144.955 71.7848 145.153 71.8463 145.39 71.8463C145.715 71.8463 146.009 71.7585 146.273 71.5828Z" fill="white"/>
<path d="M150.51 73.5063V71.0822H152.539V73.5063H150.51Z" fill="#EE5B84"/>
<path d="M77.5908 82.3818H77.288V81.0859C77.288 80.8128 77.2464 80.6139 77.1633 80.4892C77.0832 80.3615 76.9585 80.2977 76.7892 80.2977C76.6705 80.2977 76.5532 80.3274 76.4374 80.3867C76.3216 80.4432 76.2192 80.5218 76.1301 80.6228C76.044 80.7207 75.9817 80.8336 75.9431 80.9612V82.3818H75.6403V80.0616H75.9164V80.5871C76.0084 80.4179 76.1435 80.2813 76.3216 80.1774C76.4998 80.0735 76.6927 80.0216 76.9006 80.0216C77.0728 80.0216 77.2093 80.0631 77.3103 80.1463C77.4112 80.2264 77.4825 80.3422 77.524 80.4936C77.5686 80.6421 77.5908 80.8187 77.5908 81.0236V82.3818ZM79.2252 82.4264C79.0026 82.4264 78.8037 82.3714 78.6285 82.2616C78.4563 82.1517 78.3212 82.0063 78.2232 81.8252C78.1253 81.6411 78.0763 81.4422 78.0763 81.2284C78.0763 81.0117 78.1253 80.8128 78.2232 80.6317C78.3242 80.4476 78.4608 80.3006 78.6329 80.1908C78.8081 80.078 79.0055 80.0216 79.2252 80.0216C79.4479 80.0216 79.6453 80.078 79.8175 80.1908C79.9927 80.3006 80.1293 80.4476 80.2272 80.6317C80.3282 80.8128 80.3787 81.0117 80.3787 81.2284C80.3787 81.4422 80.3297 81.6411 80.2317 81.8252C80.1337 82.0063 79.9972 82.1517 79.822 82.2616C79.6498 82.3714 79.4509 82.4264 79.2252 82.4264ZM78.3836 81.2329C78.3836 81.4051 78.4207 81.5624 78.4949 81.7049C78.5721 81.8445 78.6745 81.9558 78.8022 82.0389C78.9298 82.1191 79.0709 82.1592 79.2252 82.1592C79.3796 82.1592 79.5206 82.1176 79.6483 82.0345C79.776 81.9513 79.8784 81.8385 79.9556 81.696C80.0328 81.5535 80.0714 81.3962 80.0714 81.224C80.0714 81.0518 80.0328 80.8944 79.9556 80.7519C79.8784 80.6094 79.776 80.4966 79.6483 80.4135C79.5206 80.3303 79.3796 80.2888 79.2252 80.2888C79.0738 80.2888 78.9343 80.3318 78.8066 80.4179C78.679 80.501 78.5765 80.6139 78.4993 80.7564C78.4222 80.8989 78.3836 81.0577 78.3836 81.2329ZM81.9637 82.2705C81.928 82.2853 81.8627 82.3121 81.7677 82.3507C81.6727 82.3893 81.5629 82.4086 81.4382 82.4086C81.3075 82.4086 81.1932 82.3714 81.0953 82.2972C80.9973 82.223 80.9483 82.1117 80.9483 81.9632V80.3021H80.6277V80.0616H80.9483V79.2779H81.2511V80.0616H81.7855V80.3021H81.2511V81.8786C81.2571 81.9647 81.2868 82.0285 81.3402 82.0701C81.3966 82.1087 81.4604 82.128 81.5317 82.128C81.6148 82.128 81.689 82.1146 81.7544 82.0879C81.8226 82.0582 81.8657 82.0374 81.8835 82.0256L81.9637 82.2705ZM83.4554 82.2705C83.4197 82.2853 83.3544 82.3121 83.2594 82.3507C83.1644 82.3893 83.0546 82.4086 82.9299 82.4086C82.7992 82.4086 82.6849 82.3714 82.587 82.2972C82.489 82.223 82.44 82.1117 82.44 81.9632V80.3021H82.1194V80.0616H82.44V79.2779H82.7428V80.0616H83.2772V80.3021H82.7428V81.8786C82.7488 81.9647 82.7784 82.0285 82.8319 82.0701C82.8883 82.1087 82.9521 82.128 83.0234 82.128C83.1065 82.128 83.1807 82.1146 83.246 82.0879C83.3143 82.0582 83.3574 82.0374 83.3752 82.0256L83.4554 82.2705ZM83.6467 81.7138C83.6467 81.5713 83.6882 81.4481 83.7714 81.3442C83.8545 81.2373 83.9688 81.1542 84.1143 81.0948C84.2627 81.0354 84.4334 81.0058 84.6264 81.0058C84.7392 81.0058 84.8565 81.0161 84.9782 81.0369C85.0999 81.0547 85.2083 81.08 85.3033 81.1126V80.9167C85.3033 80.7207 85.2454 80.5649 85.1296 80.4491C85.0138 80.3333 84.8535 80.2754 84.6487 80.2754C84.5269 80.2754 84.4052 80.2992 84.2835 80.3467C84.1618 80.3912 84.0356 80.458 83.905 80.5471L83.7892 80.3333C83.9406 80.2294 84.089 80.1522 84.2345 80.1017C84.38 80.0483 84.5284 80.0216 84.6798 80.0216C84.9649 80.0216 85.1905 80.1032 85.3568 80.2665C85.523 80.4298 85.6061 80.6554 85.6061 80.9434V82.0167C85.6061 82.0968 85.6432 82.1384 85.7175 82.1414V82.3818C85.6522 82.3907 85.6061 82.3937 85.5794 82.3907C85.5052 82.3878 85.4488 82.364 85.4102 82.3195C85.3716 82.275 85.3508 82.2275 85.3478 82.177L85.3434 82.0078C85.2395 82.1414 85.1044 82.2453 84.9381 82.3195C84.7719 82.3907 84.6027 82.4264 84.4305 82.4264C84.279 82.4264 84.144 82.3952 84.0252 82.3328C83.9064 82.2675 83.8129 82.1814 83.7446 82.0746C83.6793 81.9647 83.6467 81.8445 83.6467 81.7138ZM85.2009 81.892C85.2692 81.8118 85.3033 81.7376 85.3033 81.6693V81.3308C85.0985 81.2507 84.8847 81.2106 84.662 81.2106C84.4453 81.2106 84.2701 81.2537 84.1365 81.3398C84.0029 81.4259 83.9361 81.5431 83.9361 81.6916C83.9361 81.8192 83.9851 81.935 84.0831 82.0389C84.184 82.1428 84.3236 82.1948 84.5017 82.1948C84.6472 82.1948 84.7823 82.1666 84.907 82.1102C85.0346 82.0538 85.1326 81.981 85.2009 81.892ZM87.3955 79.5762V79.1309H87.6983V79.5762H87.3955ZM87.3955 82.3818V80.0616H87.6983V82.3818H87.3955ZM89.1268 82.4264C88.9368 82.4264 88.7602 82.3952 88.5969 82.3328C88.4366 82.2675 88.2956 82.1725 88.1738 82.0478L88.2985 81.8341C88.4292 81.9558 88.5598 82.0449 88.6904 82.1013C88.824 82.1547 88.965 82.1814 89.1135 82.1814C89.2916 82.1814 89.4371 82.1458 89.5499 82.0746C89.6657 82.0003 89.7236 81.8949 89.7236 81.7584C89.7236 81.6663 89.6954 81.5966 89.639 81.5491C89.5855 81.4986 89.5069 81.4585 89.403 81.4288C89.302 81.3991 89.1803 81.365 89.0378 81.3264C88.8775 81.2819 88.7424 81.2358 88.6325 81.1883C88.5256 81.1379 88.444 81.0755 88.3876 81.0013C88.3342 80.9241 88.3074 80.8247 88.3074 80.7029C88.3074 80.5545 88.3445 80.4298 88.4188 80.3288C88.496 80.2279 88.5999 80.1522 88.7305 80.1017C88.8641 80.0483 89.0125 80.0216 89.1758 80.0216C89.354 80.0216 89.5113 80.0498 89.6479 80.1062C89.7845 80.1626 89.8958 80.2413 89.9819 80.3422L89.8349 80.5471C89.7548 80.4521 89.6553 80.3823 89.5366 80.3378C89.4208 80.2903 89.2946 80.2665 89.158 80.2665C89.063 80.2665 88.9725 80.2799 88.8864 80.3066C88.8003 80.3303 88.729 80.3719 88.6726 80.4313C88.6192 80.4877 88.5924 80.5664 88.5924 80.6673C88.5924 80.792 88.6385 80.8781 88.7305 80.9256C88.8225 80.9731 88.9621 81.0236 89.1491 81.077C89.3243 81.1245 89.4772 81.172 89.6078 81.2195C89.7384 81.267 89.8394 81.3308 89.9106 81.411C89.9819 81.4882 90.0175 81.5966 90.0175 81.7361C90.0175 81.9528 89.9359 82.1221 89.7726 82.2438C89.6093 82.3655 89.394 82.4264 89.1268 82.4264ZM117.108 81.7138C117.108 81.5713 117.149 81.4481 117.232 81.3442C117.315 81.2373 117.43 81.1542 117.575 81.0948C117.724 81.0354 117.894 81.0058 118.087 81.0058C118.2 81.0058 118.317 81.0161 118.439 81.0369C118.561 81.0547 118.669 81.08 118.764 81.1126V80.9167C118.764 80.7207 118.706 80.5649 118.591 80.4491C118.475 80.3333 118.314 80.2754 118.11 80.2754C117.988 80.2754 117.866 80.2992 117.744 80.3467C117.623 80.3912 117.496 80.458 117.366 80.5471L117.25 80.3333C117.401 80.2294 117.55 80.1522 117.695 80.1017C117.841 80.0483 117.989 80.0216 118.141 80.0216C118.426 80.0216 118.651 80.1032 118.818 80.2665C118.984 80.4298 119.067 80.6554 119.067 80.9434V82.0167C119.067 82.0968 119.104 82.1384 119.178 82.1414V82.3818C119.113 82.3907 119.067 82.3937 119.04 82.3907C118.966 82.3878 118.91 82.364 118.871 82.3195C118.832 82.275 118.812 82.2275 118.809 82.177L118.804 82.0078C118.7 82.1414 118.565 82.2453 118.399 82.3195C118.233 82.3907 118.064 82.4264 117.891 82.4264C117.74 82.4264 117.605 82.3952 117.486 82.3328C117.367 82.2675 117.274 82.1814 117.206 82.0746C117.14 81.9647 117.108 81.8445 117.108 81.7138ZM118.662 81.892C118.73 81.8118 118.764 81.7376 118.764 81.6693V81.3308C118.559 81.2507 118.346 81.2106 118.123 81.2106C117.906 81.2106 117.731 81.2537 117.597 81.3398C117.464 81.4259 117.397 81.5431 117.397 81.6916C117.397 81.8192 117.446 81.935 117.544 82.0389C117.645 82.1428 117.784 82.1948 117.963 82.1948C118.108 82.1948 118.243 82.1666 118.368 82.1102C118.496 82.0538 118.593 81.981 118.662 81.892ZM121.672 82.3818H121.369V81.0859C121.369 80.8128 121.327 80.6139 121.244 80.4892C121.164 80.3615 121.04 80.2977 120.87 80.2977C120.752 80.2977 120.634 80.3274 120.518 80.3867C120.403 80.4432 120.3 80.5218 120.211 80.6228C120.125 80.7207 120.063 80.8336 120.024 80.9612V82.3818H119.721V80.0616H119.997V80.5871C120.089 80.4179 120.225 80.2813 120.403 80.1774C120.581 80.0735 120.774 80.0216 120.982 80.0216C121.154 80.0216 121.29 80.0631 121.391 80.1463C121.492 80.2264 121.564 80.3422 121.605 80.4936C121.65 80.6421 121.672 80.8187 121.672 81.0236V82.3818ZM122.162 81.2284C122.162 81.0087 122.206 80.8083 122.295 80.6272C122.387 80.4432 122.514 80.2962 122.674 80.1863C122.834 80.0765 123.017 80.0216 123.222 80.0216C123.415 80.0216 123.587 80.0735 123.738 80.1774C123.893 80.2784 124.013 80.4016 124.099 80.5471V79.1309H124.402V82.0167C124.402 82.0968 124.437 82.1384 124.509 82.1414V82.3818C124.449 82.3907 124.403 82.3937 124.371 82.3907C124.305 82.3878 124.249 82.364 124.201 82.3195C124.157 82.272 124.135 82.2185 124.135 82.1592V81.932C124.043 82.0835 123.918 82.2037 123.761 82.2928C123.603 82.3818 123.44 82.4264 123.271 82.4264C123.11 82.4264 122.962 82.3937 122.825 82.3284C122.689 82.2631 122.57 82.174 122.469 82.0612C122.371 81.9484 122.295 81.8207 122.242 81.6782C122.188 81.5327 122.162 81.3828 122.162 81.2284ZM124.099 81.5847V80.8677C124.06 80.7608 123.998 80.6643 123.912 80.5782C123.826 80.4892 123.728 80.4194 123.618 80.3689C123.511 80.3155 123.404 80.2888 123.297 80.2888C123.131 80.2888 122.986 80.3348 122.861 80.4268C122.739 80.5159 122.644 80.6332 122.576 80.7786C122.508 80.9211 122.474 81.0711 122.474 81.2284C122.474 81.3947 122.511 81.5491 122.585 81.6916C122.662 81.8341 122.766 81.9484 122.897 82.0345C123.027 82.1176 123.174 82.1592 123.337 82.1592C123.438 82.1592 123.544 82.1339 123.654 82.0835C123.766 82.03 123.864 81.9603 123.948 81.8742C124.034 81.7881 124.084 81.6916 124.099 81.5847ZM148.781 81.7138C148.781 81.5713 148.823 81.4481 148.906 81.3442C148.989 81.2373 149.103 81.1542 149.249 81.0948C149.397 81.0354 149.568 81.0058 149.761 81.0058C149.874 81.0058 149.991 81.0161 150.113 81.0369C150.234 81.0547 150.343 81.08 150.438 81.1126V80.9167C150.438 80.7207 150.38 80.5649 150.264 80.4491C150.148 80.3333 149.988 80.2754 149.783 80.2754C149.661 80.2754 149.54 80.2992 149.418 80.3467C149.296 80.3912 149.17 80.458 149.039 80.5471L148.924 80.3333C149.075 80.2294 149.223 80.1522 149.369 80.1017C149.514 80.0483 149.663 80.0216 149.814 80.0216C150.099 80.0216 150.325 80.1032 150.491 80.2665C150.657 80.4298 150.74 80.6554 150.74 80.9434V82.0167C150.74 82.0968 150.778 82.1384 150.852 82.1414V82.3818C150.787 82.3907 150.74 82.3937 150.714 82.3907C150.64 82.3878 150.583 82.364 150.545 82.3195C150.506 82.275 150.485 82.2275 150.482 82.177L150.478 82.0078C150.374 82.1414 150.239 82.2453 150.072 82.3195C149.906 82.3907 149.737 82.4264 149.565 82.4264C149.413 82.4264 149.278 82.3952 149.16 82.3328C149.041 82.2675 148.947 82.1814 148.879 82.0746C148.814 81.9647 148.781 81.8445 148.781 81.7138ZM150.335 81.892C150.404 81.8118 150.438 81.7376 150.438 81.6693V81.3308C150.233 81.2507 150.019 81.2106 149.796 81.2106C149.58 81.2106 149.404 81.2537 149.271 81.3398C149.137 81.4259 149.07 81.5431 149.07 81.6916C149.07 81.8192 149.119 81.935 149.217 82.0389C149.318 82.1428 149.458 82.1948 149.636 82.1948C149.782 82.1948 149.917 82.1666 150.041 82.1102C150.169 82.0538 150.267 81.981 150.335 81.892ZM152.579 82.4264C152.386 82.4264 152.213 82.3759 152.058 82.275C151.907 82.174 151.787 82.0493 151.698 81.9009V83.3304H151.395V80.0616H151.666V80.5114C151.758 80.366 151.88 80.2487 152.032 80.1596C152.186 80.0676 152.352 80.0216 152.53 80.0216C152.691 80.0216 152.838 80.0557 152.971 80.124C153.105 80.1893 153.221 80.2784 153.319 80.3912C153.42 80.504 153.497 80.6332 153.55 80.7786C153.604 80.9211 153.63 81.0696 153.63 81.224C153.63 81.4407 153.586 81.6411 153.497 81.8252C153.411 82.0063 153.287 82.1517 153.127 82.2616C152.97 82.3714 152.787 82.4264 152.579 82.4264ZM152.495 82.1592C152.664 82.1592 152.809 82.1146 152.931 82.0256C153.056 81.9335 153.152 81.8163 153.221 81.6738C153.289 81.5312 153.323 81.3813 153.323 81.224C153.323 81.0577 153.284 80.9033 153.207 80.7608C153.13 80.6183 153.026 80.504 152.896 80.4179C152.768 80.3318 152.622 80.2888 152.459 80.2888C152.358 80.2888 152.251 80.3155 152.138 80.3689C152.029 80.4194 151.931 80.4892 151.845 80.5782C151.761 80.6643 151.712 80.7593 151.698 80.8632V81.5758C151.766 81.7391 151.873 81.8771 152.018 81.9899C152.164 82.1028 152.323 82.1592 152.495 82.1592ZM155.328 82.4264C155.135 82.4264 154.961 82.3759 154.807 82.275C154.655 82.174 154.535 82.0493 154.446 81.9009V83.3304H154.143V80.0616H154.415V80.5114C154.507 80.366 154.629 80.2487 154.78 80.1596C154.935 80.0676 155.101 80.0216 155.279 80.0216C155.439 80.0216 155.586 80.0557 155.72 80.124C155.853 80.1893 155.969 80.2784 156.067 80.3912C156.168 80.504 156.245 80.6332 156.299 80.7786C156.352 80.9211 156.379 81.0696 156.379 81.224C156.379 81.4407 156.334 81.6411 156.245 81.8252C156.159 82.0063 156.036 82.1517 155.876 82.2616C155.718 82.3714 155.536 82.4264 155.328 82.4264ZM155.243 82.1592C155.413 82.1592 155.558 82.1146 155.68 82.0256C155.804 81.9335 155.901 81.8163 155.969 81.6738C156.037 81.5312 156.072 81.3813 156.072 81.224C156.072 81.0577 156.033 80.9033 155.956 80.7608C155.879 80.6183 155.775 80.504 155.644 80.4179C155.516 80.3318 155.371 80.2888 155.208 80.2888C155.107 80.2888 155 80.3155 154.887 80.3689C154.777 80.4194 154.679 80.4892 154.593 80.5782C154.51 80.6643 154.461 80.7593 154.446 80.8632V81.5758C154.514 81.7391 154.621 81.8771 154.767 81.9899C154.912 82.1028 155.071 82.1592 155.243 82.1592ZM158.138 82.3818V80.3021H157.818V80.0616H158.138V79.9993C158.138 79.7143 158.199 79.4916 158.321 79.3313C158.446 79.168 158.612 79.0864 158.82 79.0864C158.909 79.0864 158.996 79.0997 159.082 79.1264C159.171 79.1532 159.247 79.1888 159.309 79.2333L159.216 79.4515C159.127 79.3833 159.014 79.3491 158.878 79.3491C158.738 79.3491 158.63 79.404 158.552 79.5139C158.478 79.6237 158.441 79.7826 158.441 79.9904V80.0616H159.082V80.3021H158.441V82.3818H158.138ZM160.416 82.4264C160.193 82.4264 159.994 82.3714 159.819 82.2616C159.647 82.1517 159.512 82.0063 159.414 81.8252C159.316 81.6411 159.267 81.4422 159.267 81.2284C159.267 81.0117 159.316 80.8128 159.414 80.6317C159.515 80.4476 159.651 80.3006 159.824 80.1908C159.999 80.078 160.196 80.0216 160.416 80.0216C160.639 80.0216 160.836 80.078 161.008 80.1908C161.183 80.3006 161.32 80.4476 161.418 80.6317C161.519 80.8128 161.569 81.0117 161.569 81.2284C161.569 81.4422 161.52 81.6411 161.422 81.8252C161.324 82.0063 161.188 82.1517 161.013 82.2616C160.84 82.3714 160.642 82.4264 160.416 82.4264ZM159.574 81.2329C159.574 81.4051 159.611 81.5624 159.686 81.7049C159.763 81.8445 159.865 81.9558 159.993 82.0389C160.121 82.1191 160.262 82.1592 160.416 82.1592C160.57 82.1592 160.711 82.1176 160.839 82.0345C160.967 81.9513 161.069 81.8385 161.146 81.696C161.223 81.5535 161.262 81.3962 161.262 81.224C161.262 81.0518 161.223 80.8944 161.146 80.7519C161.069 80.6094 160.967 80.4966 160.839 80.4135C160.711 80.3303 160.57 80.2888 160.416 80.2888C160.265 80.2888 160.125 80.3318 159.997 80.4179C159.87 80.501 159.767 80.6139 159.69 80.7564C159.613 80.8989 159.574 81.0577 159.574 81.2329ZM163.234 80.3288C163.032 80.3348 162.854 80.3912 162.699 80.4981C162.548 80.605 162.441 80.7519 162.379 80.939V82.3818H162.076V80.0616H162.361V80.6183C162.441 80.455 162.546 80.3229 162.677 80.222C162.811 80.121 162.952 80.0646 163.1 80.0527C163.13 80.0498 163.155 80.0483 163.176 80.0483C163.197 80.0483 163.216 80.0498 163.234 80.0527V80.3288ZM166.191 82.2527C166.072 82.3032 165.944 82.3462 165.808 82.3818C165.674 82.4145 165.542 82.4308 165.412 82.4308C165.284 82.4308 165.167 82.41 165.06 82.3685C164.953 82.3239 164.867 82.2527 164.801 82.1547C164.739 82.0538 164.708 81.9187 164.708 81.7495V80.6762H164.418V80.0394H164.708V79.3046H165.554V80.0394H166.013V80.6762H165.554V81.4511C165.554 81.5283 165.57 81.5832 165.603 81.6159C165.636 81.6456 165.68 81.6604 165.737 81.6604C165.778 81.6604 165.826 81.653 165.879 81.6381C165.933 81.6233 165.986 81.6055 166.039 81.5847L166.191 82.2527ZM166.391 82.6179C166.528 82.6683 166.643 82.6936 166.738 82.6936C166.92 82.6936 167.019 82.5897 167.037 82.3818L166.186 80.0394H167.055L167.5 81.5134L167.861 80.0394H168.649L167.856 82.6624C167.812 82.8138 167.739 82.9459 167.638 83.0587C167.537 83.1745 167.417 83.2636 167.277 83.3259C167.138 83.3913 166.988 83.4239 166.828 83.4239C166.676 83.4239 166.531 83.3957 166.391 83.3393V82.6179ZM170.456 82.4264C170.105 82.4264 169.862 82.2957 169.725 82.0345V83.3304H168.879V80.0394H169.614V80.3912C169.697 80.2635 169.799 80.1656 169.921 80.0973C170.046 80.029 170.196 79.9948 170.371 79.9948C170.579 79.9948 170.764 80.0483 170.928 80.1552C171.091 80.2591 171.219 80.4016 171.311 80.5827C171.406 80.7638 171.453 80.9701 171.453 81.2017C171.453 81.4362 171.41 81.6456 171.324 81.8296C171.238 82.0137 171.119 82.1592 170.968 82.266C170.819 82.3729 170.649 82.4264 170.456 82.4264ZM170.162 81.7138C170.283 81.7138 170.384 81.6634 170.465 81.5624C170.548 81.4615 170.589 81.3398 170.589 81.1972C170.589 81.0488 170.546 80.93 170.46 80.841C170.377 80.7519 170.266 80.7074 170.126 80.7074C169.972 80.7074 169.838 80.7875 169.725 80.9479V81.3531C169.767 81.4541 169.828 81.5402 169.908 81.6114C169.988 81.6797 170.073 81.7138 170.162 81.7138ZM171.762 79.8434V79.1309H172.609V79.8434H171.762ZM171.762 82.3818V80.0394H172.609V82.3818H171.762ZM175.393 82.3818H174.546V81.0636C174.546 80.9479 174.52 80.8647 174.466 80.8143C174.416 80.7608 174.356 80.7341 174.288 80.7341C174.217 80.7341 174.141 80.7653 174.061 80.8276C173.981 80.89 173.921 80.9701 173.883 81.0681V82.3818H173.037V80.0394H173.798V80.3867C173.881 80.2591 173.999 80.1626 174.15 80.0973C174.301 80.029 174.478 79.9948 174.68 79.9948C174.84 79.9948 174.968 80.0231 175.063 80.0795C175.158 80.1359 175.229 80.2086 175.277 80.2977C175.324 80.3867 175.355 80.4803 175.37 80.5782C175.385 80.6732 175.393 80.7608 175.393 80.841V82.3818ZM176.702 82.3818C176.5 82.3818 176.322 82.3299 176.168 82.226C176.013 82.1221 175.893 81.981 175.807 81.8029C175.724 81.6248 175.682 81.4259 175.682 81.2062C175.682 80.9716 175.728 80.7638 175.82 80.5827C175.913 80.4016 176.04 80.2591 176.203 80.1552C176.37 80.0483 176.56 79.9948 176.773 79.9948C176.94 79.9948 177.087 80.029 177.214 80.0973C177.345 80.1626 177.447 80.2591 177.522 80.3867V80.0394H178.256V82.1681C178.256 82.4115 178.197 82.6238 178.078 82.8049C177.96 82.986 177.793 83.1255 177.58 83.2235C177.366 83.3245 177.116 83.3749 176.831 83.3749C176.585 83.3749 176.368 83.3363 176.181 83.2591C175.997 83.182 175.834 83.0706 175.691 82.9251L176.137 82.462C176.223 82.5422 176.325 82.609 176.444 82.6624C176.566 82.7188 176.695 82.747 176.831 82.747C176.935 82.747 177.03 82.7277 177.116 82.6891C177.205 82.6505 177.277 82.5882 177.33 82.5021C177.384 82.4189 177.41 82.3076 177.41 82.1681V82.0167C177.345 82.1384 177.247 82.2304 177.116 82.2928C176.989 82.3521 176.851 82.3818 176.702 82.3818ZM177.005 81.7138C177.091 81.7138 177.165 81.6945 177.228 81.6559C177.293 81.6144 177.354 81.5535 177.41 81.4734V81.0547C177.369 80.9479 177.306 80.8632 177.223 80.8009C177.143 80.7386 177.059 80.7074 176.969 80.7074C176.851 80.7074 176.75 80.7593 176.667 80.8632C176.586 80.9642 176.546 81.0859 176.546 81.2284C176.546 81.3739 176.589 81.4912 176.676 81.5802C176.762 81.6693 176.871 81.7138 177.005 81.7138ZM179.562 81.2062C179.562 80.9746 179.605 80.7682 179.691 80.5871C179.78 80.4031 179.902 80.2591 180.056 80.1552C180.21 80.0483 180.387 79.9948 180.586 79.9948C180.737 79.9948 180.877 80.0305 181.004 80.1017C181.132 80.17 181.229 80.265 181.294 80.3867V79.1309H182.14V81.4466C182.14 81.5268 182.152 81.5832 182.176 81.6159C182.199 81.6456 182.241 81.6634 182.3 81.6693V82.3818C182.155 82.4115 182.036 82.4264 181.944 82.4264C181.656 82.4264 181.49 82.318 181.445 82.1013L181.428 82.0167C181.347 82.1592 181.239 82.2631 181.102 82.3284C180.966 82.3937 180.82 82.4264 180.666 82.4264C180.452 82.4264 180.262 82.3744 180.096 82.2705C179.93 82.1666 179.799 82.0226 179.704 81.8385C179.609 81.6545 179.562 81.4437 179.562 81.2062ZM181.298 81.4734V81.0547C181.26 80.9508 181.199 80.8677 181.116 80.8054C181.036 80.74 180.951 80.7074 180.862 80.7074C180.74 80.7074 180.638 80.7579 180.555 80.8588C180.475 80.9597 180.434 81.0815 180.434 81.224C180.434 81.3694 180.477 81.4882 180.564 81.5802C180.65 81.6693 180.761 81.7138 180.898 81.7138C181.055 81.7138 181.189 81.6337 181.298 81.4734ZM183.801 82.4264C183.522 82.4264 183.288 82.37 183.098 82.2571C182.908 82.1414 182.764 81.9914 182.666 81.8074C182.568 81.6233 182.519 81.4244 182.519 81.2106C182.519 80.9939 182.568 80.7935 182.666 80.6094C182.764 80.4253 182.908 80.2769 183.098 80.1641C183.288 80.0513 183.522 79.9948 183.801 79.9948C184.08 79.9948 184.315 80.0513 184.505 80.1641C184.695 80.2769 184.839 80.4253 184.937 80.6094C185.035 80.7935 185.084 80.9939 185.084 81.2106C185.084 81.4244 185.035 81.6233 184.937 81.8074C184.839 81.9914 184.695 82.1414 184.505 82.2571C184.315 82.37 184.08 82.4264 183.801 82.4264ZM183.387 81.2106C183.387 81.365 183.426 81.4882 183.503 81.5802C183.583 81.6693 183.683 81.7138 183.801 81.7138C183.923 81.7138 184.023 81.6693 184.1 81.5802C184.177 81.4882 184.215 81.365 184.215 81.2106C184.215 81.0533 184.177 80.93 184.1 80.841C184.023 80.7519 183.923 80.7074 183.801 80.7074C183.683 80.7074 183.583 80.7519 183.503 80.841C183.426 80.93 183.387 81.0533 183.387 81.2106ZM188.173 80.0394H188.97L188.013 82.3818H187.323L187.006 81.4912L186.69 82.3818H186L185.042 80.0394H185.84L186.396 81.5891L186.552 81.0636L186.125 80.0394H186.806L187.006 80.7252L187.207 80.0394H187.888L187.461 81.0636L187.617 81.5891L188.173 80.0394ZM191.497 82.3818H190.651V81.0636C190.651 80.9479 190.624 80.8647 190.57 80.8143C190.52 80.7608 190.461 80.7341 190.392 80.7341C190.321 80.7341 190.245 80.7653 190.165 80.8276C190.085 80.89 190.026 80.9701 189.987 81.0681V82.3818H189.141V80.0394H189.902V80.3867C189.986 80.2591 190.103 80.1626 190.254 80.0973C190.406 80.029 190.582 79.9948 190.784 79.9948C190.945 79.9948 191.072 80.0231 191.167 80.0795C191.262 80.1359 191.333 80.2086 191.381 80.2977C191.428 80.3867 191.46 80.4803 191.474 80.5782C191.489 80.6732 191.497 80.7608 191.497 80.841V82.3818ZM104.294 87.3818H103.447V86.0636C103.447 85.9479 103.421 85.8647 103.367 85.8143C103.317 85.7608 103.257 85.7341 103.189 85.7341C103.118 85.7341 103.042 85.7653 102.962 85.8276C102.882 85.89 102.823 85.9701 102.784 86.0681V87.3818H101.938V85.0394H102.699V85.3867C102.782 85.2591 102.9 85.1626 103.051 85.0973C103.203 85.029 103.379 84.9948 103.581 84.9948C103.741 84.9948 103.869 85.0231 103.964 85.0795C104.059 85.1359 104.13 85.2086 104.178 85.2977C104.225 85.3867 104.256 85.4803 104.271 85.5782C104.286 85.6732 104.294 85.7608 104.294 85.841V87.3818ZM105.857 87.4264C105.578 87.4264 105.344 87.37 105.154 87.2571C104.963 87.1414 104.82 86.9914 104.722 86.8074C104.624 86.6233 104.575 86.4244 104.575 86.2106C104.575 85.9939 104.624 85.7935 104.722 85.6094C104.82 85.4253 104.963 85.2769 105.154 85.1641C105.344 85.0513 105.578 84.9948 105.857 84.9948C106.136 84.9948 106.371 85.0513 106.561 85.1641C106.751 85.2769 106.895 85.4253 106.993 85.6094C107.091 85.7935 107.14 85.9939 107.14 86.2106C107.14 86.4244 107.091 86.6233 106.993 86.8074C106.895 86.9914 106.751 87.1414 106.561 87.2571C106.371 87.37 106.136 87.4264 105.857 87.4264ZM105.443 86.2106C105.443 86.365 105.482 86.4882 105.559 86.5802C105.639 86.6693 105.738 86.7138 105.857 86.7138C105.979 86.7138 106.078 86.6693 106.156 86.5802C106.233 86.4882 106.271 86.365 106.271 86.2106C106.271 86.0533 106.233 85.93 106.156 85.841C106.078 85.7519 105.979 85.7074 105.857 85.7074C105.738 85.7074 105.639 85.7519 105.559 85.841C105.482 85.93 105.443 86.0533 105.443 86.2106ZM109.048 87.2527C108.929 87.3032 108.801 87.3462 108.665 87.3818C108.531 87.4145 108.399 87.4308 108.268 87.4308C108.141 87.4308 108.023 87.41 107.917 87.3685C107.81 87.3239 107.724 87.2527 107.658 87.1547C107.596 87.0538 107.565 86.9187 107.565 86.7495V85.6762H107.275V85.0394H107.565V84.3046H108.411V85.0394H108.87V85.6762H108.411V86.4511C108.411 86.5283 108.427 86.5832 108.46 86.6159C108.493 86.6456 108.537 86.6604 108.593 86.6604C108.635 86.6604 108.683 86.653 108.736 86.6381C108.789 86.6233 108.843 86.6055 108.896 86.5847L109.048 87.2527ZM110.415 87.4264C110.142 87.4264 109.909 87.3714 109.716 87.2616C109.526 87.1517 109.38 87.0063 109.279 86.8252C109.181 86.6441 109.132 86.4496 109.132 86.2418C109.132 86.0161 109.181 85.8098 109.279 85.6228C109.377 85.4328 109.521 85.2813 109.711 85.1685C109.901 85.0527 110.136 84.9948 110.415 84.9948C110.694 84.9948 110.928 85.0513 111.118 85.1641C111.308 85.2769 111.452 85.4253 111.55 85.6094C111.648 85.7935 111.697 85.9939 111.697 86.2106C111.697 86.3026 111.69 86.3887 111.675 86.4689H110.032C110.041 86.5936 110.087 86.6841 110.17 86.7406C110.253 86.794 110.344 86.8207 110.442 86.8207C110.534 86.8207 110.62 86.7999 110.7 86.7584C110.783 86.7168 110.838 86.6589 110.865 86.5847L111.582 86.7895C111.487 86.9766 111.34 87.1295 111.141 87.2482C110.942 87.367 110.7 87.4264 110.415 87.4264ZM110.014 85.9612H110.789C110.777 85.8484 110.735 85.7593 110.664 85.694C110.596 85.6287 110.508 85.596 110.401 85.596C110.295 85.596 110.207 85.6287 110.139 85.694C110.07 85.7593 110.029 85.8484 110.014 85.9612ZM112.915 87.4264C112.71 87.4264 112.508 87.3937 112.309 87.3284C112.113 87.2601 111.947 87.1621 111.81 87.0345L112.1 86.5134C112.245 86.6084 112.385 86.6827 112.518 86.7361C112.655 86.7895 112.778 86.8163 112.888 86.8163C113.01 86.8163 113.071 86.7806 113.071 86.7094C113.071 86.6708 113.045 86.6396 112.995 86.6159C112.947 86.5921 112.87 86.5639 112.763 86.5312C112.579 86.4659 112.425 86.4051 112.3 86.3487C112.179 86.2923 112.087 86.224 112.024 86.1438C111.965 86.0607 111.935 85.9508 111.935 85.8143C111.935 85.5738 112.024 85.3764 112.202 85.222C112.38 85.0676 112.627 84.9904 112.942 84.9904C113.099 84.9904 113.256 85.0156 113.414 85.0661C113.574 85.1136 113.728 85.2012 113.877 85.3288L113.556 85.8454C113.408 85.7534 113.281 85.6881 113.178 85.6495C113.077 85.6109 112.986 85.5916 112.906 85.5916C112.781 85.5916 112.719 85.6332 112.719 85.7163C112.719 85.7608 112.743 85.795 112.79 85.8187C112.838 85.8425 112.913 85.8692 113.017 85.8989C113.219 85.9583 113.384 86.0191 113.512 86.0815C113.639 86.1408 113.733 86.2136 113.792 86.2997C113.854 86.3858 113.886 86.4986 113.886 86.6381C113.886 86.8845 113.798 87.0775 113.623 87.2171C113.451 87.3566 113.215 87.4264 112.915 87.4264ZM115.573 87.3818V85.3021H115.252V85.0616H115.573V84.9993C115.573 84.7143 115.634 84.4916 115.755 84.3313C115.88 84.168 116.046 84.0864 116.254 84.0864C116.343 84.0864 116.431 84.0997 116.517 84.1264C116.606 84.1532 116.682 84.1888 116.744 84.2333L116.651 84.4515C116.561 84.3833 116.449 84.3491 116.312 84.3491C116.173 84.3491 116.064 84.404 115.987 84.5139C115.913 84.6237 115.876 84.7826 115.876 84.9904V85.0616H116.517V85.3021H115.876V87.3818H115.573ZM117.851 87.4264C117.628 87.4264 117.429 87.3714 117.254 87.2616C117.082 87.1517 116.946 87.0063 116.849 86.8252C116.751 86.6411 116.702 86.4422 116.702 86.2284C116.702 86.0117 116.751 85.8128 116.849 85.6317C116.949 85.4476 117.086 85.3006 117.258 85.1908C117.433 85.078 117.631 85.0216 117.851 85.0216C118.073 85.0216 118.271 85.078 118.443 85.1908C118.618 85.3006 118.755 85.4476 118.853 85.6317C118.953 85.8128 119.004 86.0117 119.004 86.2284C119.004 86.4422 118.955 86.6411 118.857 86.8252C118.759 87.0063 118.622 87.1517 118.447 87.2616C118.275 87.3714 118.076 87.4264 117.851 87.4264ZM117.009 86.2329C117.009 86.4051 117.046 86.5624 117.12 86.7049C117.197 86.8445 117.3 86.9558 117.427 87.0389C117.555 87.1191 117.696 87.1592 117.851 87.1592C118.005 87.1592 118.146 87.1176 118.274 87.0345C118.401 86.9513 118.504 86.8385 118.581 86.696C118.658 86.5535 118.697 86.3962 118.697 86.224C118.697 86.0518 118.658 85.8944 118.581 85.7519C118.504 85.6094 118.401 85.4966 118.274 85.4135C118.146 85.3303 118.005 85.2888 117.851 85.2888C117.699 85.2888 117.56 85.3318 117.432 85.4179C117.304 85.501 117.202 85.6139 117.125 85.7564C117.047 85.8989 117.009 86.0577 117.009 86.2329ZM120.668 85.3288C120.466 85.3348 120.288 85.3912 120.134 85.4981C119.982 85.605 119.876 85.7519 119.813 85.939V87.3818H119.51V85.0616H119.795V85.6183C119.876 85.455 119.981 85.3229 120.112 85.222C120.245 85.121 120.386 85.0646 120.535 85.0527C120.564 85.0498 120.59 85.0483 120.61 85.0483C120.631 85.0483 120.65 85.0498 120.668 85.0527V85.3288ZM123.287 87.4264C123.094 87.4264 122.92 87.3759 122.766 87.275C122.615 87.174 122.494 87.0493 122.405 86.9009V88.3304H122.102V85.0616H122.374V85.5114C122.466 85.366 122.588 85.2487 122.739 85.1596C122.894 85.0676 123.06 85.0216 123.238 85.0216C123.398 85.0216 123.545 85.0557 123.679 85.124C123.812 85.1893 123.928 85.2784 124.026 85.3912C124.127 85.504 124.204 85.6332 124.258 85.7786C124.311 85.9211 124.338 86.0696 124.338 86.224C124.338 86.4407 124.293 86.6411 124.204 86.8252C124.118 87.0063 123.995 87.1517 123.835 87.2616C123.677 87.3714 123.495 87.4264 123.287 87.4264ZM123.202 87.1592C123.372 87.1592 123.517 87.1146 123.639 87.0256C123.763 86.9335 123.86 86.8163 123.928 86.6738C123.997 86.5312 124.031 86.3813 124.031 86.224C124.031 86.0577 123.992 85.9033 123.915 85.7608C123.838 85.6183 123.734 85.504 123.603 85.4179C123.475 85.3318 123.33 85.2888 123.167 85.2888C123.066 85.2888 122.959 85.3155 122.846 85.3689C122.736 85.4194 122.638 85.4892 122.552 85.5782C122.469 85.6643 122.42 85.7593 122.405 85.8632V86.5758C122.473 86.7391 122.58 86.8771 122.726 86.9899C122.871 87.1028 123.03 87.1592 123.202 87.1592ZM125.853 87.4264C125.63 87.4264 125.431 87.3714 125.256 87.2616C125.081 87.1517 124.943 87.0048 124.842 86.8207C124.741 86.6366 124.691 86.4348 124.691 86.2151C124.691 85.9983 124.74 85.7994 124.838 85.6183C124.938 85.4372 125.077 85.2932 125.252 85.1863C125.427 85.0765 125.626 85.0216 125.848 85.0216C126.077 85.0216 126.277 85.0765 126.45 85.1863C126.622 85.2962 126.755 85.4417 126.85 85.6228C126.948 85.8009 126.997 85.9968 126.997 86.2106C126.997 86.2581 126.996 86.2982 126.993 86.3308H125.007C125.022 86.4971 125.069 86.6456 125.149 86.7762C125.229 86.9038 125.332 87.0063 125.457 87.0835C125.581 87.1577 125.718 87.1948 125.866 87.1948C126.018 87.1948 126.16 87.1562 126.294 87.079C126.427 87.0018 126.522 86.9009 126.579 86.7762L126.842 86.8474C126.794 86.9603 126.72 87.0612 126.619 87.1503C126.521 87.2364 126.407 87.3046 126.276 87.3551C126.145 87.4026 126.004 87.4264 125.853 87.4264ZM124.998 86.1126H126.712C126.701 85.9464 126.655 85.7994 126.574 85.6718C126.494 85.5411 126.392 85.4402 126.267 85.3689C126.142 85.2947 126.004 85.2576 125.853 85.2576C125.702 85.2576 125.563 85.2947 125.439 85.3689C125.314 85.4402 125.212 85.5411 125.131 85.6718C125.054 85.7994 125.01 85.9464 124.998 86.1126ZM128.623 85.3288C128.421 85.3348 128.242 85.3912 128.088 85.4981C127.937 85.605 127.83 85.7519 127.767 85.939V87.3818H127.465V85.0616H127.75V85.6183C127.83 85.455 127.935 85.3229 128.066 85.222C128.199 85.121 128.34 85.0646 128.489 85.0527C128.519 85.0498 128.544 85.0483 128.565 85.0483C128.585 85.0483 128.605 85.0498 128.623 85.0527V85.3288ZM129.787 87.4264C129.597 87.4264 129.421 87.3952 129.257 87.3328C129.097 87.2675 128.956 87.1725 128.834 87.0478L128.959 86.8341C129.09 86.9558 129.22 87.0449 129.351 87.1013C129.485 87.1547 129.626 87.1814 129.774 87.1814C129.952 87.1814 130.098 87.1458 130.211 87.0746C130.326 87.0003 130.384 86.8949 130.384 86.7584C130.384 86.6663 130.356 86.5966 130.3 86.5491C130.246 86.4986 130.167 86.4585 130.064 86.4288C129.963 86.3991 129.841 86.365 129.698 86.3264C129.538 86.2819 129.403 86.2358 129.293 86.1883C129.186 86.1379 129.105 86.0755 129.048 86.0013C128.995 85.9241 128.968 85.8247 128.968 85.7029C128.968 85.5545 129.005 85.4298 129.079 85.3288C129.157 85.2279 129.26 85.1522 129.391 85.1017C129.525 85.0483 129.673 85.0216 129.836 85.0216C130.015 85.0216 130.172 85.0498 130.308 85.1062C130.445 85.1626 130.556 85.2413 130.642 85.3422L130.496 85.5471C130.415 85.4521 130.316 85.3823 130.197 85.3378C130.081 85.2903 129.955 85.2665 129.819 85.2665C129.724 85.2665 129.633 85.2799 129.547 85.3066C129.461 85.3303 129.39 85.3719 129.333 85.4313C129.28 85.4877 129.253 85.5664 129.253 85.6673C129.253 85.792 129.299 85.8781 129.391 85.9256C129.483 85.9731 129.623 86.0236 129.81 86.077C129.985 86.1245 130.138 86.172 130.268 86.2195C130.399 86.267 130.5 86.3308 130.571 86.411C130.642 86.4882 130.678 86.5966 130.678 86.7361C130.678 86.9528 130.596 87.1221 130.433 87.2438C130.27 87.3655 130.055 87.4264 129.787 87.4264ZM132.167 87.4264C131.945 87.4264 131.746 87.3714 131.571 87.2616C131.398 87.1517 131.263 87.0063 131.165 86.8252C131.067 86.6411 131.018 86.4422 131.018 86.2284C131.018 86.0117 131.067 85.8128 131.165 85.6317C131.266 85.4476 131.403 85.3006 131.575 85.1908C131.75 85.078 131.948 85.0216 132.167 85.0216C132.39 85.0216 132.587 85.078 132.76 85.1908C132.935 85.3006 133.071 85.4476 133.169 85.6317C133.27 85.8128 133.321 86.0117 133.321 86.2284C133.321 86.4422 133.272 86.6411 133.174 86.8252C133.076 87.0063 132.939 87.1517 132.764 87.2616C132.592 87.3714 132.393 87.4264 132.167 87.4264ZM131.326 86.2329C131.326 86.4051 131.363 86.5624 131.437 86.7049C131.514 86.8445 131.617 86.9558 131.744 87.0389C131.872 87.1191 132.013 87.1592 132.167 87.1592C132.322 87.1592 132.463 87.1176 132.59 87.0345C132.718 86.9513 132.82 86.8385 132.898 86.696C132.975 86.5535 133.013 86.3962 133.013 86.224C133.013 86.0518 132.975 85.8944 132.898 85.7519C132.82 85.6094 132.718 85.4966 132.59 85.4135C132.463 85.3303 132.322 85.2888 132.167 85.2888C132.016 85.2888 131.876 85.3318 131.749 85.4179C131.621 85.501 131.519 85.6139 131.441 85.7564C131.364 85.8989 131.326 86.0577 131.326 86.2329ZM135.778 87.3818H135.475V86.0859C135.475 85.8128 135.433 85.6139 135.35 85.4892C135.27 85.3615 135.145 85.2977 134.976 85.2977C134.857 85.2977 134.74 85.3274 134.624 85.3867C134.509 85.4432 134.406 85.5218 134.317 85.6228C134.231 85.7207 134.169 85.8336 134.13 85.9612V87.3818H133.827V85.0616H134.103V85.5871C134.195 85.4179 134.33 85.2813 134.509 85.1774C134.687 85.0735 134.88 85.0216 135.087 85.0216C135.26 85.0216 135.396 85.0631 135.497 85.1463C135.598 85.2264 135.669 85.3422 135.711 85.4936C135.755 85.6421 135.778 85.8187 135.778 86.0236V87.3818ZM136.236 86.7138C136.236 86.5713 136.278 86.4481 136.361 86.3442C136.444 86.2373 136.559 86.1542 136.704 86.0948C136.852 86.0354 137.023 86.0058 137.216 86.0058C137.329 86.0058 137.446 86.0161 137.568 86.0369C137.69 86.0547 137.798 86.08 137.893 86.1126V85.9167C137.893 85.7207 137.835 85.5649 137.719 85.4491C137.604 85.3333 137.443 85.2754 137.238 85.2754C137.117 85.2754 136.995 85.2992 136.873 85.3467C136.752 85.3912 136.625 85.458 136.495 85.5471L136.379 85.3333C136.53 85.2294 136.679 85.1522 136.824 85.1017C136.97 85.0483 137.118 85.0216 137.27 85.0216C137.555 85.0216 137.78 85.1032 137.947 85.2665C138.113 85.4298 138.196 85.6554 138.196 85.9434V87.0167C138.196 87.0968 138.233 87.1384 138.307 87.1414V87.3818C138.242 87.3907 138.196 87.3937 138.169 87.3907C138.095 87.3878 138.039 87.364 138 87.3195C137.961 87.275 137.941 87.2275 137.938 87.177L137.933 87.0078C137.829 87.1414 137.694 87.2453 137.528 87.3195C137.362 87.3907 137.192 87.4264 137.02 87.4264C136.869 87.4264 136.734 87.3952 136.615 87.3328C136.496 87.2675 136.403 87.1814 136.334 87.0746C136.269 86.9647 136.236 86.8445 136.236 86.7138ZM137.791 86.892C137.859 86.8118 137.893 86.7376 137.893 86.6693V86.3308C137.688 86.2507 137.474 86.2106 137.252 86.2106C137.035 86.2106 136.86 86.2537 136.726 86.3398C136.593 86.4259 136.526 86.5431 136.526 86.6916C136.526 86.8192 136.575 86.935 136.673 87.0389C136.774 87.1428 136.913 87.1948 137.091 87.1948C137.237 87.1948 137.372 87.1666 137.497 87.1102C137.624 87.0538 137.722 86.981 137.791 86.892ZM138.864 84.1309H139.166V86.8563C139.166 86.9721 139.186 87.0478 139.224 87.0835C139.266 87.1191 139.318 87.1369 139.38 87.1369C139.434 87.1369 139.487 87.131 139.54 87.1191C139.597 87.1072 139.643 87.0953 139.679 87.0835L139.732 87.3284C139.676 87.3521 139.606 87.3714 139.523 87.3863C139.443 87.4011 139.373 87.4086 139.313 87.4086C139.177 87.4086 139.067 87.3685 138.984 87.2883C138.904 87.2082 138.864 87.0983 138.864 86.9588V84.1309ZM142.052 87.4264C141.83 87.4264 141.631 87.3714 141.456 87.2616C141.284 87.1517 141.148 87.0063 141.05 86.8252C140.952 86.6411 140.904 86.4422 140.904 86.2284C140.904 86.0117 140.952 85.8128 141.05 85.6317C141.151 85.4476 141.288 85.3006 141.46 85.1908C141.635 85.078 141.833 85.0216 142.052 85.0216C142.275 85.0216 142.473 85.078 142.645 85.1908C142.82 85.3006 142.956 85.4476 143.054 85.6317C143.155 85.8128 143.206 86.0117 143.206 86.2284C143.206 86.4422 143.157 86.6411 143.059 86.8252C142.961 87.0063 142.824 87.1517 142.649 87.2616C142.477 87.3714 142.278 87.4264 142.052 87.4264ZM141.211 86.2329C141.211 86.4051 141.248 86.5624 141.322 86.7049C141.399 86.8445 141.502 86.9558 141.629 87.0389C141.757 87.1191 141.898 87.1592 142.052 87.1592C142.207 87.1592 142.348 87.1176 142.476 87.0345C142.603 86.9513 142.706 86.8385 142.783 86.696C142.86 86.5535 142.899 86.3962 142.899 86.224C142.899 86.0518 142.86 85.8944 142.783 85.7519C142.706 85.6094 142.603 85.4966 142.476 85.4135C142.348 85.3303 142.207 85.2888 142.052 85.2888C141.901 85.2888 141.762 85.3318 141.634 85.4179C141.506 85.501 141.404 85.6139 141.327 85.7564C141.249 85.8989 141.211 86.0577 141.211 86.2329ZM144.87 85.3288C144.668 85.3348 144.49 85.3912 144.336 85.4981C144.184 85.605 144.078 85.7519 144.015 85.939V87.3818H143.712V85.0616H143.997V85.6183C144.078 85.455 144.183 85.3229 144.314 85.222C144.447 85.121 144.588 85.0646 144.737 85.0527C144.766 85.0498 144.792 85.0483 144.812 85.0483C144.833 85.0483 144.852 85.0498 144.87 85.0527V85.3288ZM147.293 87.4264C147.07 87.4264 146.871 87.3714 146.696 87.2616C146.524 87.1517 146.389 87.0063 146.291 86.8252C146.193 86.6411 146.144 86.4422 146.144 86.2284C146.144 86.0117 146.193 85.8128 146.291 85.6317C146.392 85.4476 146.528 85.3006 146.701 85.1908C146.876 85.078 147.073 85.0216 147.293 85.0216C147.516 85.0216 147.713 85.078 147.885 85.1908C148.06 85.3006 148.197 85.4476 148.295 85.6317C148.396 85.8128 148.446 86.0117 148.446 86.2284C148.446 86.4422 148.397 86.6411 148.299 86.8252C148.201 87.0063 148.065 87.1517 147.89 87.2616C147.718 87.3714 147.519 87.4264 147.293 87.4264ZM146.451 86.2329C146.451 86.4051 146.488 86.5624 146.563 86.7049C146.64 86.8445 146.742 86.9558 146.87 87.0389C146.998 87.1191 147.139 87.1592 147.293 87.1592C147.447 87.1592 147.588 87.1176 147.716 87.0345C147.844 86.9513 147.946 86.8385 148.023 86.696C148.1 86.5535 148.139 86.3962 148.139 86.224C148.139 86.0518 148.1 85.8944 148.023 85.7519C147.946 85.6094 147.844 85.4966 147.716 85.4135C147.588 85.3303 147.447 85.2888 147.293 85.2888C147.142 85.2888 147.002 85.3318 146.874 85.4179C146.747 85.501 146.644 85.6139 146.567 85.7564C146.49 85.8989 146.451 86.0577 146.451 86.2329ZM149.025 87.3818V85.3021H148.704V85.0616H149.025V85.0349C149.025 84.9043 149.052 84.7796 149.105 84.6608C149.162 84.5421 149.243 84.4456 149.35 84.3714C149.46 84.2972 149.594 84.26 149.751 84.26C149.849 84.26 149.938 84.2719 150.018 84.2957C150.101 84.3194 150.175 84.3491 150.241 84.3847C150.309 84.2957 150.395 84.2244 150.499 84.171C150.603 84.1146 150.726 84.0864 150.869 84.0864C151.032 84.0864 151.172 84.1116 151.287 84.1621C151.406 84.2125 151.491 84.2571 151.541 84.2957L151.403 84.5139C151.353 84.4694 151.281 84.4322 151.189 84.4026C151.097 84.3699 150.996 84.3536 150.887 84.3536C150.762 84.3536 150.659 84.3862 150.579 84.4515C150.502 84.5139 150.444 84.594 150.406 84.692C150.37 84.79 150.352 84.8895 150.352 84.9904V85.0616H151.514V87.3818H151.212V85.3021H150.352V87.3818H150.049V85.3021H149.328V87.3818H149.025ZM149.328 85.026V85.0616H150.049V84.9993C150.049 84.8598 150.075 84.7262 150.125 84.5985C150.075 84.5688 150.023 84.5495 149.969 84.5406C149.916 84.5287 149.861 84.5228 149.804 84.5228C149.692 84.5228 149.6 84.5495 149.528 84.603C149.46 84.6564 149.41 84.7217 149.377 84.7989C149.344 84.8761 149.328 84.9518 149.328 85.026ZM153.191 87.4264C152.965 87.4264 152.765 87.3714 152.589 87.2616C152.414 87.1488 152.276 87.0018 152.175 86.8207C152.074 86.6366 152.024 86.4348 152.024 86.2151C152.024 85.9954 152.073 85.7964 152.171 85.6183C152.269 85.4372 152.405 85.2932 152.58 85.1863C152.756 85.0765 152.958 85.0216 153.186 85.0216C153.403 85.0216 153.593 85.072 153.756 85.173C153.922 85.271 154.047 85.4046 154.13 85.5738L153.836 85.6673C153.771 85.5485 153.679 85.4565 153.56 85.3912C153.444 85.3229 153.315 85.2888 153.173 85.2888C153.015 85.2888 152.873 85.3288 152.745 85.409C152.621 85.4892 152.52 85.6005 152.442 85.743C152.368 85.8825 152.331 86.0399 152.331 86.2151C152.331 86.3902 152.37 86.5491 152.447 86.6916C152.524 86.8341 152.626 86.9484 152.754 87.0345C152.882 87.1176 153.023 87.1592 153.177 87.1592C153.278 87.1592 153.376 87.1414 153.471 87.1057C153.566 87.0701 153.648 87.0226 153.716 86.9632C153.784 86.9009 153.83 86.8341 153.854 86.7628L154.152 86.8519C154.111 86.9617 154.043 87.0612 153.948 87.1503C153.853 87.2364 153.74 87.3046 153.609 87.3551C153.479 87.4026 153.339 87.4264 153.191 87.4264ZM155.608 87.4264C155.386 87.4264 155.187 87.3714 155.012 87.2616C154.837 87.1517 154.699 87.0048 154.598 86.8207C154.497 86.6366 154.446 86.4348 154.446 86.2151C154.446 85.9983 154.495 85.7994 154.593 85.6183C154.694 85.4372 154.832 85.2932 155.007 85.1863C155.182 85.0765 155.381 85.0216 155.604 85.0216C155.833 85.0216 156.033 85.0765 156.205 85.1863C156.377 85.2962 156.511 85.4417 156.606 85.6228C156.704 85.8009 156.753 85.9968 156.753 86.2106C156.753 86.2581 156.752 86.2982 156.749 86.3308H154.762C154.777 86.4971 154.825 86.6456 154.905 86.7762C154.985 86.9038 155.087 87.0063 155.212 87.0835C155.337 87.1577 155.473 87.1948 155.622 87.1948C155.773 87.1948 155.916 87.1562 156.049 87.079C156.183 87.0018 156.278 86.9009 156.334 86.7762L156.597 86.8474C156.55 86.9603 156.475 87.0612 156.374 87.1503C156.276 87.2364 156.162 87.3046 156.032 87.3551C155.901 87.4026 155.76 87.4264 155.608 87.4264ZM154.753 86.1126H156.468C156.456 85.9464 156.41 85.7994 156.33 85.6718C156.25 85.5411 156.147 85.4402 156.023 85.3689C155.898 85.2947 155.76 85.2576 155.608 85.2576C155.457 85.2576 155.319 85.2947 155.194 85.3689C155.07 85.4402 154.967 85.5411 154.887 85.6718C154.81 85.7994 154.765 85.9464 154.753 86.1126ZM158.333 86.4244V85.0616H158.636V86.3709C158.636 86.8964 158.815 87.1592 159.175 87.1592C159.353 87.1592 159.519 87.1013 159.673 86.9855C159.831 86.8697 159.944 86.7153 160.012 86.5223V85.0616H160.315V87.0167C160.315 87.0968 160.35 87.1384 160.422 87.1414V87.3818C160.386 87.3878 160.358 87.3907 160.337 87.3907C160.319 87.3907 160.3 87.3907 160.279 87.3907C160.217 87.3848 160.163 87.3611 160.119 87.3195C160.077 87.2779 160.056 87.2275 160.056 87.1681L160.048 86.8563C159.947 87.0374 159.809 87.1785 159.633 87.2794C159.461 87.3774 159.274 87.4264 159.072 87.4264C158.579 87.4264 158.333 87.0924 158.333 86.4244ZM161.761 87.4264C161.571 87.4264 161.394 87.3952 161.231 87.3328C161.071 87.2675 160.93 87.1725 160.808 87.0478L160.933 86.8341C161.063 86.9558 161.194 87.0449 161.325 87.1013C161.458 87.1547 161.599 87.1814 161.748 87.1814C161.926 87.1814 162.071 87.1458 162.184 87.0746C162.3 87.0003 162.358 86.8949 162.358 86.7584C162.358 86.6663 162.33 86.5966 162.273 86.5491C162.22 86.4986 162.141 86.4585 162.037 86.4288C161.936 86.3991 161.814 86.365 161.672 86.3264C161.512 86.2819 161.376 86.2358 161.267 86.1883C161.16 86.1379 161.078 86.0755 161.022 86.0013C160.968 85.9241 160.942 85.8247 160.942 85.7029C160.942 85.5545 160.979 85.4298 161.053 85.3288C161.13 85.2279 161.234 85.1522 161.365 85.1017C161.498 85.0483 161.647 85.0216 161.81 85.0216C161.988 85.0216 162.145 85.0498 162.282 85.1062C162.419 85.1626 162.53 85.2413 162.616 85.3422L162.469 85.5471C162.389 85.4521 162.289 85.3823 162.171 85.3378C162.055 85.2903 161.929 85.2665 161.792 85.2665C161.697 85.2665 161.607 85.2799 161.52 85.3066C161.434 85.3303 161.363 85.3719 161.307 85.4313C161.253 85.4877 161.227 85.5664 161.227 85.6673C161.227 85.792 161.273 85.8781 161.365 85.9256C161.457 85.9731 161.596 86.0236 161.783 86.077C161.958 86.1245 162.111 86.172 162.242 86.2195C162.373 86.267 162.474 86.3308 162.545 86.411C162.616 86.4882 162.652 86.5966 162.652 86.7361C162.652 86.9528 162.57 87.1221 162.407 87.2438C162.243 87.3655 162.028 87.4264 161.761 87.4264ZM164.154 87.4264C163.932 87.4264 163.733 87.3714 163.557 87.2616C163.382 87.1517 163.244 87.0048 163.143 86.8207C163.042 86.6366 162.992 86.4348 162.992 86.2151C162.992 85.9983 163.041 85.7994 163.139 85.6183C163.24 85.4372 163.378 85.2932 163.553 85.1863C163.728 85.0765 163.927 85.0216 164.15 85.0216C164.378 85.0216 164.579 85.0765 164.751 85.1863C164.923 85.2962 165.057 85.4417 165.152 85.6228C165.25 85.8009 165.299 85.9968 165.299 86.2106C165.299 86.2581 165.297 86.2982 165.294 86.3308H163.308C163.323 86.4971 163.37 86.6456 163.451 86.7762C163.531 86.9038 163.633 87.0063 163.758 87.0835C163.883 87.1577 164.019 87.1948 164.168 87.1948C164.319 87.1948 164.461 87.1562 164.595 87.079C164.729 87.0018 164.824 86.9009 164.88 86.7762L165.143 86.8474C165.095 86.9603 165.021 87.0612 164.92 87.1503C164.822 87.2364 164.708 87.3046 164.577 87.3551C164.447 87.4026 164.306 87.4264 164.154 87.4264ZM163.299 86.1126H165.014C165.002 85.9464 164.956 85.7994 164.876 85.6718C164.795 85.5411 164.693 85.4402 164.568 85.3689C164.444 85.2947 164.306 85.2576 164.154 85.2576C164.003 85.2576 163.865 85.2947 163.74 85.3689C163.615 85.4402 163.513 85.5411 163.433 85.6718C163.356 85.7994 163.311 85.9464 163.299 86.1126ZM165.721 87.3818V86.9454H165.984V87.3818H165.721Z" fill="white"/>
<path d="M91.6309 81.4244V80.0616H91.9337V81.3709C91.9337 81.8964 92.1133 82.1592 92.4726 82.1592C92.6507 82.1592 92.8169 82.1013 92.9713 81.9855C93.1287 81.8697 93.2415 81.7153 93.3098 81.5223V80.0616H93.6126V82.0167C93.6126 82.0968 93.6482 82.1384 93.7195 82.1414V82.3818C93.6839 82.3878 93.6557 82.3907 93.6349 82.3907C93.6171 82.3907 93.5978 82.3907 93.577 82.3907C93.5146 82.3848 93.4612 82.3611 93.4167 82.3195C93.3751 82.2779 93.3543 82.2275 93.3543 82.1681L93.3454 81.8563C93.2445 82.0374 93.1064 82.1785 92.9312 82.2794C92.7591 82.3774 92.572 82.4264 92.3701 82.4264C91.8773 82.4264 91.6309 82.0924 91.6309 81.4244ZM95.0588 82.4264C94.8688 82.4264 94.6922 82.3952 94.5289 82.3328C94.3686 82.2675 94.2275 82.1725 94.1058 82.0478L94.2305 81.8341C94.3611 81.9558 94.4918 82.0449 94.6224 82.1013C94.756 82.1547 94.897 82.1814 95.0455 82.1814C95.2236 82.1814 95.3691 82.1458 95.4819 82.0746C95.5977 82.0003 95.6556 81.8949 95.6556 81.7584C95.6556 81.6663 95.6274 81.5966 95.571 81.5491C95.5175 81.4986 95.4388 81.4585 95.3349 81.4288C95.234 81.3991 95.1123 81.365 94.9698 81.3264C94.8094 81.2819 94.6744 81.2358 94.5645 81.1883C94.4576 81.1379 94.376 81.0755 94.3196 81.0013C94.2661 80.9241 94.2394 80.8247 94.2394 80.7029C94.2394 80.5545 94.2765 80.4298 94.3507 80.3288C94.4279 80.2279 94.5318 80.1522 94.6625 80.1017C94.7961 80.0483 94.9445 80.0216 95.1078 80.0216C95.2859 80.0216 95.4433 80.0498 95.5799 80.1062C95.7164 80.1626 95.8278 80.2413 95.9139 80.3422L95.7669 80.5471C95.6867 80.4521 95.5873 80.3823 95.4685 80.3378C95.3527 80.2903 95.2266 80.2665 95.09 80.2665C94.995 80.2665 94.9044 80.2799 94.8183 80.3066C94.7322 80.3303 94.661 80.3719 94.6046 80.4313C94.5511 80.4877 94.5244 80.5664 94.5244 80.6673C94.5244 80.792 94.5704 80.8781 94.6625 80.9256C94.7545 80.9731 94.8941 81.0236 95.0811 81.077C95.2563 81.1245 95.4092 81.172 95.5398 81.2195C95.6704 81.267 95.7714 81.3308 95.8426 81.411C95.9139 81.4882 95.9495 81.5966 95.9495 81.7361C95.9495 81.9528 95.8678 82.1221 95.7046 82.2438C95.5413 82.3655 95.326 82.4264 95.0588 82.4264ZM97.452 82.4264C97.2294 82.4264 97.0305 82.3714 96.8553 82.2616C96.6801 82.1517 96.5421 82.0048 96.4411 81.8207C96.3402 81.6366 96.2897 81.4348 96.2897 81.2151C96.2897 80.9983 96.3387 80.7994 96.4367 80.6183C96.5376 80.4372 96.6757 80.2932 96.8508 80.1863C97.026 80.0765 97.2249 80.0216 97.4476 80.0216C97.6762 80.0216 97.8766 80.0765 98.0488 80.1863C98.221 80.2962 98.3546 80.4417 98.4496 80.6228C98.5476 80.8009 98.5965 80.9968 98.5965 81.2106C98.5965 81.2581 98.5951 81.2982 98.5921 81.3308H96.6059C96.6208 81.4971 96.6683 81.6456 96.7484 81.7762C96.8286 81.9038 96.931 82.0063 97.0557 82.0835C97.1804 82.1577 97.317 82.1948 97.4654 82.1948C97.6168 82.1948 97.7593 82.1562 97.8929 82.079C98.0265 82.0018 98.1215 81.9009 98.1779 81.7762L98.4407 81.8474C98.3932 81.9603 98.319 82.0612 98.218 82.1503C98.12 82.2364 98.0057 82.3046 97.8751 82.3551C97.7445 82.4026 97.6035 82.4264 97.452 82.4264ZM96.597 81.1126H98.3115C98.2997 80.9464 98.2536 80.7994 98.1735 80.6718C98.0933 80.5411 97.9909 80.4402 97.8662 80.3689C97.7415 80.2947 97.6035 80.2576 97.452 80.2576C97.3006 80.2576 97.1626 80.2947 97.0379 80.3689C96.9132 80.4402 96.8108 80.5411 96.7306 80.6718C96.6534 80.7994 96.6089 80.9464 96.597 81.1126ZM100.222 80.3288C100.02 80.3348 99.8416 80.3912 99.6872 80.4981C99.5358 80.605 99.4289 80.7519 99.3666 80.939V82.3818H99.0638V80.0616H99.3488V80.6183C99.4289 80.455 99.5343 80.3229 99.665 80.222C99.7986 80.121 99.9396 80.0646 100.088 80.0527C100.118 80.0498 100.143 80.0483 100.164 80.0483C100.185 80.0483 100.204 80.0498 100.222 80.0527V80.3288ZM100.736 82.3818V80.3021H100.416V80.0616H100.736V79.9993C100.736 79.7143 100.797 79.4916 100.919 79.3313C101.044 79.168 101.21 79.0864 101.418 79.0864C101.507 79.0864 101.594 79.0997 101.68 79.1264C101.77 79.1532 101.845 79.1888 101.908 79.2333L101.814 79.4515C101.725 79.3833 101.612 79.3491 101.476 79.3491C101.336 79.3491 101.228 79.404 101.151 79.5139C101.076 79.6237 101.039 79.7826 101.039 79.9904V80.0616H101.68V80.3021H101.039V82.3818H100.736ZM103.253 80.3288C103.051 80.3348 102.873 80.3912 102.718 80.4981C102.567 80.605 102.46 80.7519 102.398 80.939V82.3818H102.095V80.0616H102.38V80.6183C102.46 80.455 102.566 80.3229 102.696 80.222C102.83 80.121 102.971 80.0646 103.119 80.0527C103.149 80.0498 103.174 80.0483 103.195 80.0483C103.216 80.0483 103.235 80.0498 103.253 80.0527V80.3288ZM103.656 79.5762V79.1309H103.959V79.5762H103.656ZM103.656 82.3818V80.0616H103.959V82.3818H103.656ZM105.628 82.4264C105.405 82.4264 105.206 82.3714 105.031 82.2616C104.856 82.1517 104.718 82.0048 104.617 81.8207C104.516 81.6366 104.466 81.4348 104.466 81.2151C104.466 80.9983 104.515 80.7994 104.613 80.6183C104.714 80.4372 104.852 80.2932 105.027 80.1863C105.202 80.0765 105.401 80.0216 105.624 80.0216C105.852 80.0216 106.053 80.0765 106.225 80.1863C106.397 80.2962 106.531 80.4417 106.626 80.6228C106.724 80.8009 106.773 80.9968 106.773 81.2106C106.773 81.2581 106.771 81.2982 106.768 81.3308H104.782C104.797 81.4971 104.844 81.6456 104.924 81.7762C105.005 81.9038 105.107 82.0063 105.232 82.0835C105.356 82.1577 105.493 82.1948 105.641 82.1948C105.793 82.1948 105.935 82.1562 106.069 82.079C106.203 82.0018 106.298 81.9009 106.354 81.7762L106.617 81.8474C106.569 81.9603 106.495 82.0612 106.394 82.1503C106.296 82.2364 106.182 82.3046 106.051 82.3551C105.921 82.4026 105.779 82.4264 105.628 82.4264ZM104.773 81.1126H106.488C106.476 80.9464 106.43 80.7994 106.35 80.6718C106.269 80.5411 106.167 80.4402 106.042 80.3689C105.918 80.2947 105.779 80.2576 105.628 80.2576C105.477 80.2576 105.339 80.2947 105.214 80.3689C105.089 80.4402 104.987 80.5411 104.907 80.6718C104.829 80.7994 104.785 80.9464 104.773 81.1126ZM109.19 82.3818H108.888V81.0859C108.888 80.8128 108.846 80.6139 108.763 80.4892C108.683 80.3615 108.558 80.2977 108.389 80.2977C108.27 80.2977 108.153 80.3274 108.037 80.3867C107.921 80.4432 107.819 80.5218 107.73 80.6228C107.644 80.7207 107.581 80.8336 107.543 80.9612V82.3818H107.24V80.0616H107.516V80.5871C107.608 80.4179 107.743 80.2813 107.921 80.1774C108.099 80.0735 108.292 80.0216 108.5 80.0216C108.672 80.0216 108.809 80.0631 108.91 80.1463C109.011 80.2264 109.082 80.3422 109.124 80.4936C109.168 80.6421 109.19 80.8187 109.19 81.0236V82.3818ZM109.68 81.2284C109.68 81.0087 109.725 80.8083 109.814 80.6272C109.906 80.4432 110.032 80.2962 110.192 80.1863C110.353 80.0765 110.535 80.0216 110.74 80.0216C110.933 80.0216 111.105 80.0735 111.257 80.1774C111.411 80.2784 111.531 80.4016 111.617 80.5471V79.1309H111.92V82.0167C111.92 82.0968 111.956 82.1384 112.027 82.1414V82.3818C111.968 82.3907 111.922 82.3937 111.889 82.3907C111.824 82.3878 111.767 82.364 111.72 82.3195C111.675 82.272 111.653 82.2185 111.653 82.1592V81.932C111.561 82.0835 111.436 82.2037 111.279 82.2928C111.122 82.3818 110.958 82.4264 110.789 82.4264C110.629 82.4264 110.48 82.3937 110.344 82.3284C110.207 82.2631 110.088 82.174 109.988 82.0612C109.89 81.9484 109.814 81.8207 109.76 81.6782C109.707 81.5327 109.68 81.3828 109.68 81.2284ZM111.617 81.5847V80.8677C111.579 80.7608 111.517 80.6643 111.43 80.5782C111.344 80.4892 111.246 80.4194 111.137 80.3689C111.03 80.3155 110.923 80.2888 110.816 80.2888C110.65 80.2888 110.504 80.3348 110.379 80.4268C110.258 80.5159 110.163 80.6332 110.094 80.7786C110.026 80.9211 109.992 81.0711 109.992 81.2284C109.992 81.3947 110.029 81.5491 110.103 81.6916C110.181 81.8341 110.284 81.9484 110.415 82.0345C110.546 82.1176 110.693 82.1592 110.856 82.1592C110.957 82.1592 111.062 82.1339 111.172 82.0835C111.285 82.03 111.383 81.9603 111.466 81.8742C111.552 81.7881 111.603 81.6916 111.617 81.5847ZM112.62 79.1309H112.923V81.8563C112.923 81.9721 112.942 82.0478 112.981 82.0835C113.022 82.1191 113.074 82.1369 113.136 82.1369C113.19 82.1369 113.243 82.131 113.297 82.1191C113.353 82.1072 113.399 82.0953 113.435 82.0835L113.488 82.3284C113.432 82.3521 113.362 82.3714 113.279 82.3863C113.199 82.4011 113.129 82.4086 113.07 82.4086C112.933 82.4086 112.823 82.3685 112.74 82.2883C112.66 82.2082 112.62 82.0983 112.62 81.9588V79.1309ZM113.879 83.0944C113.921 83.0973 113.961 83.0988 114 83.0988C114.038 83.1018 114.066 83.1003 114.084 83.0944C114.12 83.0914 114.153 83.0706 114.182 83.032C114.215 82.9964 114.254 82.9281 114.298 82.8272C114.346 82.7292 114.409 82.5808 114.49 82.3818L113.479 80.0616H113.799L114.65 82.0701L115.434 80.0616H115.736L114.534 83.0543C114.501 83.1404 114.447 83.2146 114.369 83.277C114.292 83.3393 114.19 83.372 114.062 83.3749C114.035 83.3779 114.007 83.3779 113.977 83.3749C113.948 83.3749 113.915 83.372 113.879 83.366V83.0944ZM127.229 82.4264C127.004 82.4264 126.803 82.3714 126.628 82.2616C126.453 82.1488 126.315 82.0018 126.214 81.8207C126.113 81.6366 126.063 81.4348 126.063 81.2151C126.063 80.9954 126.112 80.7964 126.21 80.6183C126.308 80.4372 126.444 80.2932 126.619 80.1863C126.795 80.0765 126.996 80.0216 127.225 80.0216C127.442 80.0216 127.632 80.072 127.795 80.173C127.961 80.271 128.086 80.4046 128.169 80.5738L127.875 80.6673C127.81 80.5485 127.718 80.4565 127.599 80.3912C127.483 80.3229 127.354 80.2888 127.212 80.2888C127.054 80.2888 126.912 80.3288 126.784 80.409C126.659 80.4892 126.558 80.6005 126.481 80.743C126.407 80.8825 126.37 81.0399 126.37 81.2151C126.37 81.3902 126.409 81.5491 126.486 81.6916C126.563 81.8341 126.665 81.9484 126.793 82.0345C126.921 82.1176 127.062 82.1592 127.216 82.1592C127.317 82.1592 127.415 82.1414 127.51 82.1057C127.605 82.0701 127.687 82.0226 127.755 81.9632C127.823 81.9009 127.869 81.8341 127.893 81.7628L128.191 81.8519C128.15 81.9617 128.082 82.0612 127.987 82.1503C127.892 82.2364 127.779 82.3046 127.648 82.3551C127.517 82.4026 127.378 82.4264 127.229 82.4264ZM128.68 79.1309H128.983V81.8563C128.983 81.9721 129.003 82.0478 129.041 82.0835C129.083 82.1191 129.135 82.1369 129.197 82.1369C129.251 82.1369 129.304 82.131 129.357 82.1191C129.414 82.1072 129.46 82.0953 129.495 82.0835L129.549 82.3284C129.492 82.3521 129.423 82.3714 129.34 82.3863C129.259 82.4011 129.19 82.4086 129.13 82.4086C128.994 82.4086 128.884 82.3685 128.801 82.2883C128.721 82.2082 128.68 82.0983 128.68 81.9588V79.1309ZM129.858 81.4244V80.0616H130.161V81.3709C130.161 81.8964 130.341 82.1592 130.7 82.1592C130.878 82.1592 131.044 82.1013 131.199 81.9855C131.356 81.8697 131.469 81.7153 131.537 81.5223V80.0616H131.84V82.0167C131.84 82.0968 131.876 82.1384 131.947 82.1414V82.3818C131.911 82.3878 131.883 82.3907 131.862 82.3907C131.844 82.3907 131.825 82.3907 131.804 82.3907C131.742 82.3848 131.689 82.3611 131.644 82.3195C131.602 82.2779 131.582 82.2275 131.582 82.1681L131.573 81.8563C131.472 82.0374 131.334 82.1785 131.159 82.2794C130.986 82.3774 130.799 82.4264 130.597 82.4264C130.105 82.4264 129.858 82.0924 129.858 81.4244ZM133.638 82.2705C133.602 82.2853 133.537 82.3121 133.442 82.3507C133.347 82.3893 133.237 82.4086 133.112 82.4086C132.982 82.4086 132.868 82.3714 132.77 82.2972C132.672 82.223 132.623 82.1117 132.623 81.9632V80.3021H132.302V80.0616H132.623V79.2779H132.925V80.0616H133.46V80.3021H132.925V81.8786C132.931 81.9647 132.961 82.0285 133.015 82.0701C133.071 82.1087 133.135 82.128 133.206 82.128C133.289 82.128 133.363 82.1146 133.429 82.0879C133.497 82.0582 133.54 82.0374 133.558 82.0256L133.638 82.2705ZM135.13 82.2705C135.094 82.2853 135.029 82.3121 134.934 82.3507C134.839 82.3893 134.729 82.4086 134.604 82.4086C134.474 82.4086 134.359 82.3714 134.261 82.2972C134.163 82.223 134.114 82.1117 134.114 81.9632V80.3021H133.794V80.0616H134.114V79.2779H134.417V80.0616H134.952V80.3021H134.417V81.8786C134.423 81.9647 134.453 82.0285 134.506 82.0701C134.563 82.1087 134.626 82.128 134.698 82.128C134.781 82.128 134.855 82.1146 134.92 82.0879C134.989 82.0582 135.032 82.0374 135.05 82.0256L135.13 82.2705ZM136.471 82.4264C136.248 82.4264 136.049 82.3714 135.874 82.2616C135.699 82.1517 135.561 82.0048 135.46 81.8207C135.359 81.6366 135.309 81.4348 135.309 81.2151C135.309 80.9983 135.358 80.7994 135.456 80.6183C135.556 80.4372 135.695 80.2932 135.87 80.1863C136.045 80.0765 136.244 80.0216 136.466 80.0216C136.695 80.0216 136.895 80.0765 137.068 80.1863C137.24 80.2962 137.373 80.4417 137.468 80.6228C137.566 80.8009 137.615 80.9968 137.615 81.2106C137.615 81.2581 137.614 81.2982 137.611 81.3308H135.625C135.64 81.4971 135.687 81.6456 135.767 81.7762C135.847 81.9038 135.95 82.0063 136.075 82.0835C136.199 82.1577 136.336 82.1948 136.484 82.1948C136.636 82.1948 136.778 82.1562 136.912 82.079C137.045 82.0018 137.14 81.9009 137.197 81.7762L137.46 81.8474C137.412 81.9603 137.338 82.0612 137.237 82.1503C137.139 82.2364 137.025 82.3046 136.894 82.3551C136.763 82.4026 136.622 82.4264 136.471 82.4264ZM135.616 81.1126H137.33C137.319 80.9464 137.272 80.7994 137.192 80.6718C137.112 80.5411 137.01 80.4402 136.885 80.3689C136.76 80.2947 136.622 80.2576 136.471 80.2576C136.319 80.2576 136.181 80.2947 136.057 80.3689C135.932 80.4402 135.83 80.5411 135.749 80.6718C135.672 80.7994 135.628 80.9464 135.616 81.1126ZM139.24 80.3288C139.039 80.3348 138.86 80.3912 138.706 80.4981C138.555 80.605 138.448 80.7519 138.385 80.939V82.3818H138.083V80.0616H138.368V80.6183C138.448 80.455 138.553 80.3229 138.684 80.222C138.817 80.121 138.958 80.0646 139.107 80.0527C139.137 80.0498 139.162 80.0483 139.183 80.0483C139.203 80.0483 139.223 80.0498 139.24 80.0527V80.3288ZM139.755 82.3818V80.3021H139.435V80.0616H139.755V79.9993C139.755 79.7143 139.816 79.4916 139.938 79.3313C140.063 79.168 140.229 79.0864 140.437 79.0864C140.526 79.0864 140.613 79.0997 140.699 79.1264C140.788 79.1532 140.864 79.1888 140.926 79.2333L140.833 79.4515C140.744 79.3833 140.631 79.3491 140.494 79.3491C140.355 79.3491 140.247 79.404 140.169 79.5139C140.095 79.6237 140.058 79.7826 140.058 79.9904V80.0616H140.699V80.3021H140.058V82.3818H139.755ZM142.272 80.3288C142.07 80.3348 141.892 80.3912 141.737 80.4981C141.586 80.605 141.479 80.7519 141.417 80.939V82.3818H141.114V80.0616H141.399V80.6183C141.479 80.455 141.584 80.3229 141.715 80.222C141.849 80.121 141.99 80.0646 142.138 80.0527C142.168 80.0498 142.193 80.0483 142.214 80.0483C142.235 80.0483 142.254 80.0498 142.272 80.0527V80.3288ZM143.608 82.4264C143.385 82.4264 143.186 82.3714 143.011 82.2616C142.836 82.1517 142.698 82.0048 142.597 81.8207C142.496 81.6366 142.445 81.4348 142.445 81.2151C142.445 80.9983 142.494 80.7994 142.592 80.6183C142.693 80.4372 142.831 80.2932 143.006 80.1863C143.182 80.0765 143.38 80.0216 143.603 80.0216C143.832 80.0216 144.032 80.0765 144.204 80.1863C144.376 80.2962 144.51 80.4417 144.605 80.6228C144.703 80.8009 144.752 80.9968 144.752 81.2106C144.752 81.2581 144.751 81.2982 144.748 81.3308H142.761C142.776 81.4971 142.824 81.6456 142.904 81.7762C142.984 81.9038 143.086 82.0063 143.211 82.0835C143.336 82.1577 143.472 82.1948 143.621 82.1948C143.772 82.1948 143.915 82.1562 144.048 82.079C144.182 82.0018 144.277 81.9009 144.333 81.7762L144.596 81.8474C144.549 81.9603 144.474 82.0612 144.374 82.1503C144.276 82.2364 144.161 82.3046 144.031 82.3551C143.9 82.4026 143.759 82.4264 143.608 82.4264ZM142.752 81.1126H144.467C144.455 80.9464 144.409 80.7994 144.329 80.6718C144.249 80.5411 144.146 80.4402 144.022 80.3689C143.897 80.2947 143.759 80.2576 143.608 80.2576C143.456 80.2576 143.318 80.2947 143.193 80.3689C143.069 80.4402 142.966 80.5411 142.886 80.6718C142.809 80.7994 142.764 80.9464 142.752 81.1126ZM146.221 82.4264C145.999 82.4264 145.8 82.3714 145.625 82.2616C145.449 82.1517 145.311 82.0048 145.21 81.8207C145.109 81.6366 145.059 81.4348 145.059 81.2151C145.059 80.9983 145.108 80.7994 145.206 80.6183C145.307 80.4372 145.445 80.2932 145.62 80.1863C145.795 80.0765 145.994 80.0216 146.217 80.0216C146.445 80.0216 146.646 80.0765 146.818 80.1863C146.99 80.2962 147.124 80.4417 147.219 80.6228C147.317 80.8009 147.366 80.9968 147.366 81.2106C147.366 81.2581 147.364 81.2982 147.361 81.3308H145.375C145.39 81.4971 145.437 81.6456 145.518 81.7762C145.598 81.9038 145.7 82.0063 145.825 82.0835C145.95 82.1577 146.086 82.1948 146.235 82.1948C146.386 82.1948 146.529 82.1562 146.662 82.079C146.796 82.0018 146.891 81.9009 146.947 81.7762L147.21 81.8474C147.162 81.9603 147.088 82.0612 146.987 82.1503C146.889 82.2364 146.775 82.3046 146.644 82.3551C146.514 82.4026 146.373 82.4264 146.221 82.4264ZM145.366 81.1126H147.081C147.069 80.9464 147.023 80.7994 146.943 80.6718C146.863 80.5411 146.76 80.4402 146.635 80.3689C146.511 80.2947 146.373 80.2576 146.221 80.2576C146.07 80.2576 145.932 80.2947 145.807 80.3689C145.682 80.4402 145.58 80.5411 145.5 80.6718C145.423 80.7994 145.378 80.9464 145.366 81.1126Z" fill="#EE5B84"/>
</g>
<rect x="113.496" y="114.673" width="41.0078" height="11.8756" rx="1.48444" fill="#EE5B84"/>
<path fill-rule="evenodd" clip-rule="evenodd" d="M119.991 119.312V118.941H123.331V119.312H119.991ZM122.217 119.683H119.991V120.054H122.217V119.683ZM122.217 121.168H119.991V121.539H122.217V121.168ZM123.331 120.797H119.991V120.426H123.331V120.797ZM119.991 122.281H123.331V121.91H119.991V122.281Z" fill="#F8F8F8" fill-opacity="0.83"/>
<path d="M126.862 119.977C126.812 119.921 126.736 119.871 126.633 119.825C126.53 119.78 126.416 119.757 126.289 119.757C126.127 119.757 126.007 119.788 125.93 119.849C125.853 119.91 125.814 119.995 125.814 120.101C125.814 120.177 125.834 120.236 125.873 120.28C125.913 120.323 125.973 120.359 126.054 120.386C126.138 120.414 126.242 120.443 126.369 120.473C126.516 120.504 126.642 120.543 126.749 120.588C126.856 120.634 126.938 120.695 126.996 120.772C127.053 120.848 127.082 120.949 127.082 121.075C127.082 121.21 127.048 121.321 126.981 121.408C126.913 121.495 126.821 121.559 126.705 121.601C126.59 121.642 126.46 121.663 126.316 121.663C125.987 121.663 125.701 121.564 125.458 121.366L125.585 121.141C125.629 121.184 125.687 121.228 125.761 121.271C125.836 121.315 125.921 121.351 126.016 121.381C126.113 121.409 126.215 121.423 126.322 121.423C126.472 121.423 126.589 121.396 126.672 121.342C126.755 121.287 126.797 121.207 126.797 121.102C126.797 121.023 126.773 120.959 126.725 120.912C126.68 120.864 126.612 120.825 126.521 120.793C126.429 120.761 126.319 120.73 126.188 120.698C126.046 120.663 125.926 120.624 125.829 120.582C125.732 120.539 125.659 120.482 125.609 120.413C125.562 120.344 125.538 120.254 125.538 120.143C125.538 120.008 125.57 119.895 125.636 119.802C125.701 119.709 125.791 119.638 125.906 119.591C126.021 119.543 126.15 119.519 126.295 119.519C126.435 119.519 126.563 119.541 126.678 119.585C126.795 119.628 126.898 119.687 126.987 119.76L126.862 119.977ZM129.191 119.772H128.463V121.642H128.196V119.772H127.469V119.534H129.191V119.772ZM130.173 119.534H130.399L131.26 121.642H130.975L130.725 121.025H129.841L129.594 121.642H129.309L130.173 119.534ZM130.666 120.817L130.286 119.843L129.894 120.817H130.666ZM131.778 121.642V119.534H132.681C132.774 119.534 132.859 119.554 132.936 119.594C133.014 119.631 133.081 119.683 133.138 119.748C133.196 119.811 133.24 119.884 133.272 119.965C133.303 120.044 133.319 120.125 133.319 120.208C133.319 120.305 133.301 120.397 133.263 120.484C133.227 120.571 133.176 120.646 133.109 120.707C133.043 120.768 132.966 120.811 132.877 120.835L133.388 121.642H133.085L132.604 120.885H132.046V121.642H131.778ZM132.046 120.648H132.684C132.757 120.648 132.821 120.628 132.874 120.588C132.929 120.547 132.972 120.492 133.002 120.425C133.033 120.358 133.049 120.285 133.049 120.208C133.049 120.129 133.031 120.057 132.996 119.992C132.96 119.924 132.914 119.871 132.856 119.831C132.799 119.792 132.735 119.772 132.666 119.772H132.046V120.648ZM135.47 119.772H134.743V121.642H134.475V119.772H133.748V119.534H135.47V119.772ZM138.34 119.772H137.612V121.642H137.345V119.772H136.618V119.534H138.34V119.772ZM138.961 119.534L139.599 120.633L140.244 119.534H140.535L139.733 120.873V121.642H139.466V120.867L138.667 119.534H138.961ZM141.064 121.642V119.534H141.943C142.036 119.534 142.121 119.554 142.198 119.594C142.275 119.631 142.342 119.683 142.4 119.748C142.457 119.811 142.502 119.884 142.533 119.965C142.565 120.044 142.581 120.125 142.581 120.208C142.581 120.323 142.555 120.433 142.504 120.538C142.452 120.641 142.38 120.725 142.287 120.79C142.194 120.854 142.085 120.885 141.96 120.885H141.331V121.642H141.064ZM141.331 120.648H141.946C142.019 120.648 142.082 120.628 142.136 120.588C142.191 120.549 142.234 120.495 142.263 120.428C142.295 120.361 142.311 120.287 142.311 120.208C142.311 120.125 142.293 120.051 142.257 119.986C142.222 119.918 142.175 119.866 142.118 119.828C142.06 119.791 141.997 119.772 141.928 119.772H141.331V120.648ZM143.151 121.642V119.534H143.418V121.642H143.151ZM144.427 120.027V121.642H144.16V119.534H144.385L145.674 121.182V119.537H145.941V121.642H145.698L144.427 120.027ZM147.528 121.657C147.39 121.657 147.26 121.627 147.139 121.568C147.02 121.507 146.916 121.426 146.827 121.325C146.738 121.222 146.669 121.107 146.62 120.98C146.57 120.852 146.545 120.719 146.545 120.582C146.545 120.44 146.57 120.305 146.62 120.179C146.669 120.05 146.737 119.936 146.824 119.837C146.914 119.738 147.017 119.661 147.136 119.606C147.257 119.548 147.388 119.519 147.528 119.519C147.732 119.519 147.9 119.562 148.033 119.647C148.165 119.732 148.265 119.843 148.333 119.98L148.128 120.122C148.066 119.999 147.982 119.908 147.875 119.849C147.769 119.79 147.651 119.76 147.522 119.76C147.415 119.76 147.318 119.783 147.231 119.828C147.144 119.874 147.069 119.936 147.006 120.015C146.944 120.092 146.897 120.181 146.863 120.28C146.831 120.378 146.816 120.481 146.816 120.588C146.816 120.739 146.847 120.877 146.911 121.004C146.976 121.129 147.064 121.229 147.175 121.304C147.286 121.379 147.41 121.417 147.549 121.417C147.662 121.417 147.77 121.39 147.872 121.336C147.977 121.281 148.076 121.197 148.169 121.084V120.793H147.715V120.591H148.395V121.642H148.169V121.357C147.987 121.557 147.774 121.657 147.528 121.657Z" fill="white"/>
<path d="M124.258 130.631C123.921 130.631 123.603 130.724 123.331 130.882C123.885 131.203 124.258 131.8 124.258 132.487C124.258 133.173 123.885 133.771 123.331 134.092C123.603 134.249 123.921 134.342 124.258 134.342C125.283 134.342 126.114 133.511 126.114 132.487C126.114 131.462 125.283 130.631 124.258 130.631Z" fill="#696969"/>
<path d="M127.851 133.518V131.41H128.581C128.807 131.41 128.995 131.457 129.145 131.552C129.298 131.645 129.412 131.772 129.487 131.932C129.562 132.091 129.6 132.267 129.6 132.461C129.6 132.675 129.558 132.861 129.475 133.019C129.392 133.177 129.274 133.3 129.122 133.387C128.969 133.474 128.789 133.518 128.581 133.518H127.851ZM129.329 132.461C129.329 132.302 129.3 132.162 129.24 132.039C129.183 131.917 129.099 131.821 128.988 131.751C128.877 131.682 128.742 131.647 128.581 131.647H128.118V133.28H128.581C128.744 133.28 128.88 133.245 128.991 133.173C129.102 133.1 129.186 133.002 129.243 132.879C129.301 132.755 129.329 132.615 129.329 132.461ZM130.036 133.069C130.036 132.97 130.064 132.885 130.119 132.814C130.176 132.741 130.255 132.684 130.354 132.645C130.453 132.605 130.567 132.586 130.698 132.586C130.767 132.586 130.84 132.591 130.918 132.603C130.995 132.613 131.063 132.629 131.123 132.651V132.538C131.123 132.419 131.087 132.326 131.016 132.259C130.944 132.19 130.843 132.155 130.713 132.155C130.628 132.155 130.546 132.171 130.466 132.203C130.389 132.232 130.307 132.276 130.22 132.333L130.125 132.149C130.226 132.08 130.327 132.028 130.428 131.995C130.529 131.959 130.634 131.941 130.743 131.941C130.94 131.941 131.097 131.997 131.212 132.108C131.326 132.216 131.384 132.369 131.384 132.565V133.221C131.384 133.282 131.411 133.314 131.467 133.316V133.518C131.441 133.522 131.418 133.525 131.399 133.527C131.381 133.529 131.366 133.53 131.354 133.53C131.293 133.53 131.246 133.513 131.215 133.479C131.185 133.446 131.168 133.41 131.164 133.372L131.158 133.274C131.091 133.361 131.003 133.429 130.894 133.476C130.785 133.524 130.677 133.547 130.57 133.547C130.467 133.547 130.375 133.527 130.294 133.485C130.213 133.442 130.15 133.384 130.104 133.313C130.059 133.24 130.036 133.159 130.036 133.069ZM131.045 133.179C131.069 133.152 131.088 133.124 131.102 133.096C131.116 133.066 131.123 133.042 131.123 133.022V132.829C130.996 132.779 130.865 132.755 130.731 132.755C130.598 132.755 130.49 132.781 130.407 132.835C130.326 132.886 130.285 132.958 130.285 133.049C130.285 133.098 130.298 133.147 130.324 133.194C130.352 133.24 130.391 133.277 130.443 133.307C130.496 133.337 130.561 133.352 130.639 133.352C130.72 133.352 130.797 133.336 130.87 133.304C130.943 133.27 131.002 133.229 131.045 133.179ZM132.858 132.197C132.728 132.199 132.612 132.232 132.511 132.298C132.412 132.361 132.342 132.449 132.3 132.562V133.518H132.039V131.968H132.282V132.327C132.336 132.22 132.406 132.134 132.493 132.069C132.582 132.002 132.675 131.964 132.772 131.956C132.792 131.956 132.809 131.956 132.823 131.956C132.837 131.956 132.849 131.957 132.858 131.959V132.197ZM134.448 133.518L133.91 132.764L133.616 133.04V133.518H133.355V131.35H133.616V132.767L134.418 131.971H134.7L134.082 132.612L134.73 133.518H134.448ZM138.046 133.518V131.909L137.351 133.147H137.188L136.49 131.909V133.518H136.223V131.41H136.505L137.268 132.779L138.034 131.41H138.313V133.518H138.046ZM139.665 133.547C139.51 133.547 139.374 133.511 139.255 133.438C139.138 133.362 139.047 133.264 138.982 133.144C138.917 133.021 138.884 132.888 138.884 132.746C138.884 132.601 138.917 132.469 138.982 132.348C139.049 132.225 139.141 132.127 139.258 132.054C139.377 131.979 139.512 131.941 139.665 131.941C139.819 131.941 139.955 131.979 140.071 132.054C140.19 132.127 140.282 132.225 140.348 132.348C140.415 132.469 140.448 132.601 140.448 132.746C140.448 132.888 140.415 133.021 140.348 133.144C140.282 133.264 140.191 133.362 140.074 133.438C139.958 133.511 139.821 133.547 139.665 133.547ZM139.151 132.749C139.151 132.856 139.174 132.953 139.219 133.04C139.267 133.127 139.329 133.196 139.406 133.248C139.484 133.297 139.57 133.322 139.665 133.322C139.76 133.322 139.846 133.296 139.923 133.245C140.002 133.193 140.064 133.124 140.11 133.037C140.157 132.948 140.181 132.85 140.181 132.743C140.181 132.636 140.157 132.539 140.11 132.452C140.064 132.365 140.002 132.296 139.923 132.244C139.846 132.193 139.76 132.167 139.665 132.167C139.57 132.167 139.484 132.194 139.406 132.247C139.329 132.299 139.267 132.368 139.219 132.455C139.174 132.542 139.151 132.64 139.151 132.749ZM140.902 132.746C140.902 132.599 140.931 132.466 140.991 132.345C141.052 132.222 141.135 132.124 141.24 132.051C141.347 131.978 141.469 131.941 141.605 131.941C141.73 131.941 141.842 131.974 141.941 132.039C142.04 132.105 142.117 132.184 142.172 132.277V131.35H142.434V133.221C142.434 133.282 142.461 133.314 142.517 133.316V133.518C142.467 133.526 142.429 133.53 142.401 133.53C142.349 133.53 142.304 133.512 142.264 133.476C142.227 133.441 142.208 133.401 142.208 133.357V133.227C142.147 133.326 142.064 133.404 141.961 133.461C141.859 133.519 141.752 133.547 141.641 133.547C141.498 133.547 141.371 133.511 141.258 133.438C141.147 133.362 141.06 133.264 140.997 133.144C140.933 133.021 140.902 132.888 140.902 132.746ZM142.172 132.974V132.529C142.149 132.462 142.11 132.401 142.056 132.348C142.003 132.293 141.943 132.249 141.875 132.217C141.81 132.184 141.745 132.167 141.679 132.167C141.579 132.167 141.489 132.195 141.412 132.25C141.337 132.305 141.278 132.378 141.234 132.467C141.193 132.556 141.172 132.65 141.172 132.749C141.172 132.852 141.195 132.947 141.24 133.034C141.288 133.121 141.352 133.191 141.433 133.245C141.514 133.296 141.604 133.322 141.703 133.322C141.767 133.322 141.832 133.307 141.899 133.277C141.966 133.246 142.026 133.203 142.077 133.15C142.129 133.096 142.16 133.038 142.172 132.974ZM143.793 133.547C143.639 133.547 143.502 133.511 143.383 133.438C143.265 133.364 143.172 133.266 143.104 133.144C143.037 133.021 143.003 132.887 143.003 132.743C143.003 132.596 143.037 132.463 143.104 132.342C143.172 132.221 143.265 132.124 143.383 132.051C143.504 131.978 143.642 131.941 143.796 131.941C143.952 131.941 144.088 131.979 144.203 132.054C144.32 132.127 144.41 132.224 144.473 132.345C144.538 132.464 144.571 132.592 144.571 132.731C144.571 132.775 144.569 132.808 144.565 132.832H143.279C143.287 132.933 143.315 133.023 143.363 133.102C143.412 133.179 143.475 133.241 143.553 133.286C143.63 133.33 143.713 133.352 143.802 133.352C143.897 133.352 143.986 133.328 144.069 133.28C144.154 133.233 144.213 133.17 144.244 133.093L144.47 133.156C144.42 133.27 144.334 133.364 144.212 133.438C144.089 133.511 143.949 133.547 143.793 133.547ZM143.27 132.651H144.327C144.32 132.55 144.291 132.461 144.241 132.384C144.192 132.306 144.129 132.246 144.051 132.203C143.974 132.159 143.889 132.137 143.796 132.137C143.705 132.137 143.621 132.159 143.544 132.203C143.466 132.246 143.403 132.306 143.354 132.384C143.306 132.461 143.278 132.55 143.27 132.651Z" fill="#757575"/>
<defs>
<clipPath id="clip0">
<rect width="120.426" height="26.72" fill="white" transform="translate(73.7871 64.0219)"/>
</clipPath>
</defs>
</svg>
